<svg width="32" height="32" viewBox="0 0 32 32" fill="none" xmlns="http://www.w3.org/2000/svg">
    <path
        d="M25.0386 7.2159C28.9867 12.2466 28.9867 19.7529 25.0386 24.7836C24.5524 25.4012 23.6954 24.5609 24.1816 23.9446C27.7463 19.3903 27.7463 12.6098 24.1816 8.05551C23.6959 7.43852 24.553 6.59891 25.0386 7.2159Z"
        fill="white" stroke="white" strokeWidth="0.5" />
    <path
        d="M22.6743 9.51912C24.0807 11.3156 24.8554 13.618 24.8554 16.001C24.8554 18.384 24.0807 20.6864 22.6743 22.4829C22.1886 23.0999 21.3265 22.266 21.8115 21.649C23.0382 20.0842 23.7141 18.0776 23.7141 16.0007C23.7141 13.9238 23.0382 11.9172 21.8115 10.3524C21.3259 9.73538 22.1886 8.90213 22.6743 9.51912Z"
        fill="white" stroke="white" strokeWidth="0.5" />
    <path
        d="M20.3034 11.815C21.2124 12.9745 21.7133 14.4614 21.7133 16.0004C21.7133 17.5393 21.2124 19.0262 20.3034 20.1857C19.8235 20.8027 18.9602 19.9631 19.4464 19.3461C20.173 18.4192 20.5733 17.2306 20.5733 16.0004C20.5733 14.7701 20.173 13.5816 19.4464 12.6546C18.9608 12.0376 19.8235 11.198 20.3034 11.815ZM16.0012 13.7741C17.0924 13.7741 18.0009 14.7855 18.0009 16.0004C18.0009 17.2153 17.0924 18.2266 16.0012 18.2266C14.9099 18.2266 14.0014 17.2153 14.0014 16.0004C14.0014 14.7855 14.9099 13.7741 16.0012 13.7741ZM11.6989 11.815C12.1788 11.198 13.0421 12.0376 12.5559 12.6546C11.8293 13.5816 11.429 14.7701 11.429 16.0004C11.429 17.2306 11.8293 18.4192 12.5559 19.3461C13.0421 19.9637 12.1788 20.8027 11.6989 20.1857C10.7899 19.0262 10.2891 17.5393 10.2891 16.0004C10.2891 14.4614 10.7899 12.9745 11.6989 11.815Z"
        fill="white" stroke="white" strokeWidth="0.5" />
    <path
        d="M9.3277 9.51902C9.81335 8.90203 10.6755 9.73592 10.1904 10.3529C8.96375 11.9177 8.28784 13.9243 8.28784 16.0012C8.28784 18.0781 8.96375 20.0847 10.1904 21.6495C10.6761 22.2665 9.81335 23.0998 9.3277 22.4834C7.92128 20.6869 7.14648 18.3843 7.14648 16.0012C7.14648 13.6181 7.92128 11.3156 9.3277 9.51902Z"
        fill="white" stroke="white" strokeWidth="0.5" />
    <path
        d="M6.96103 7.21617C7.44725 6.59855 8.30427 7.4388 7.81805 8.05515C4.25339 12.6094 4.25339 19.3899 7.81805 23.9442C8.30427 24.5612 7.44725 25.4008 6.96103 24.7832C3.01299 19.7531 3.01299 12.2475 6.96103 7.21617Z"
        fill="white" stroke="white" strokeWidth="0.5" />
</svg>