<svg width="36" height="32" viewBox="0 0 36 32" fill="none" xmlns="http://www.w3.org/2000/svg">
<path d="M5.46 26.74L9.688 25.33L10.428 25.7C12.128 26.548 14.018 27 16 27C22.62 27 28 21.788 28 16C28 10.212 22.62 5 16 5C9.38 5 4 10.212 4 16C4 18.16 4.78 20.352 6.214 22.226L6.904 23.126L5.458 26.738L5.46 26.74ZM4.046 29.32C3.86501 29.3806 3.67045 29.3882 3.4853 29.3418C3.30015 29.2954 3.13214 29.197 3.00111 29.0582C2.87009 28.9194 2.78153 28.746 2.74589 28.5585C2.71026 28.371 2.72903 28.1772 2.8 28L4.624 23.44C2.96 21.26 2 18.652 2 16C2 9.372 8 3 16 3C24 3 30 9.372 30 16C30 22.628 24 29 16 29C13.7563 29.0063 11.5422 28.4886 9.534 27.488L4.046 29.318V29.32Z" fill="white"/>
<path d="M16.0004 17.5999C15.7903 17.5999 15.5822 17.5585 15.3881 17.4781C15.194 17.3977 15.0176 17.2798 14.869 17.1313C14.7204 16.9827 14.6026 16.8063 14.5222 16.6122C14.4418 16.4181 14.4004 16.21 14.4004 15.9999C14.4004 15.7898 14.4418 15.5817 14.5222 15.3876C14.6026 15.1935 14.7204 15.0171 14.869 14.8685C15.0176 14.72 15.194 14.6021 15.3881 14.5217C15.5822 14.4413 15.7903 14.3999 16.0004 14.3999C16.4247 14.3999 16.8317 14.5685 17.1318 14.8685C17.4318 15.1686 17.6004 15.5756 17.6004 15.9999C17.6004 16.4242 17.4318 16.8312 17.1318 17.1313C16.8317 17.4313 16.4247 17.5999 16.0004 17.5999ZM22.0004 17.5999C21.7903 17.5999 21.5822 17.5585 21.3881 17.4781C21.194 17.3977 21.0176 17.2798 20.869 17.1313C20.7204 16.9827 20.6026 16.8063 20.5222 16.6122C20.4418 16.4181 20.4004 16.21 20.4004 15.9999C20.4004 15.7898 20.4418 15.5817 20.5222 15.3876C20.6026 15.1935 20.7204 15.0171 20.869 14.8685C21.0176 14.72 21.194 14.6021 21.3881 14.5217C21.5822 14.4413 21.7903 14.3999 22.0004 14.3999C22.4247 14.3999 22.8317 14.5685 23.1318 14.8685C23.4318 15.1686 23.6004 15.5756 23.6004 15.9999C23.6004 16.4242 23.4318 16.8312 23.1318 17.1313C22.8317 17.4313 22.4247 17.5999 22.0004 17.5999ZM10.0004 17.5999C9.79028 17.5999 9.58222 17.5585 9.3881 17.4781C9.19398 17.3977 9.01759 17.2798 8.86902 17.1313C8.72045 16.9827 8.60259 16.8063 8.52218 16.6122C8.44178 16.4181 8.40039 16.21 8.40039 15.9999C8.40039 15.7898 8.44178 15.5817 8.52218 15.3876C8.60259 15.1935 8.72045 15.0171 8.86902 14.8685C9.01759 14.72 9.19398 14.6021 9.3881 14.5217C9.58222 14.4413 9.79028 14.3999 10.0004 14.3999C10.4247 14.3999 10.8317 14.5685 11.1318 14.8685C11.4318 15.1686 11.6004 15.5756 11.6004 15.9999C11.6004 16.4242 11.4318 16.8312 11.1318 17.1313C10.8317 17.4313 10.4247 17.5999 10.0004 17.5999Z" fill="white"/>
<circle cx="28" cy="8" r="7.5" fill="#FF5F5F" stroke="#0D0F13"/>
<path d="M27.6914 10.1875V11H23.8398V10.3047L25.6875 8.30859C25.8802 8.08984 26.0326 7.89974 26.1445 7.73828C26.2565 7.57682 26.3359 7.43099 26.3828 7.30078C26.4323 7.16797 26.457 7.04167 26.457 6.92188C26.457 6.7474 26.4258 6.59505 26.3633 6.46484C26.3008 6.33203 26.2096 6.22917 26.0898 6.15625C25.9727 6.08333 25.8281 6.04688 25.6562 6.04688C25.4661 6.04688 25.3034 6.09115 25.168 6.17969C25.0352 6.26562 24.9336 6.38542 24.8633 6.53906C24.7956 6.69271 24.7617 6.86849 24.7617 7.06641H23.7266C23.7266 6.73047 23.8047 6.42448 23.9609 6.14844C24.1172 5.86979 24.3411 5.64714 24.6328 5.48047C24.9245 5.3138 25.2708 5.23047 25.6719 5.23047C26.0625 5.23047 26.3932 5.29557 26.6641 5.42578C26.9349 5.55339 27.1406 5.73568 27.2812 5.97266C27.4219 6.20964 27.4922 6.49219 27.4922 6.82031C27.4922 7.0026 27.4622 7.18229 27.4023 7.35938C27.3424 7.53646 27.2578 7.71224 27.1484 7.88672C27.0417 8.05859 26.9141 8.23307 26.7656 8.41016C26.6172 8.58724 26.4518 8.76823 26.2695 8.95312L25.1602 10.1875H27.6914ZM32.2617 10.1875V11H28.4102V10.3047L30.2578 8.30859C30.4505 8.08984 30.6029 7.89974 30.7148 7.73828C30.8268 7.57682 30.9062 7.43099 30.9531 7.30078C31.0026 7.16797 31.0273 7.04167 31.0273 6.92188C31.0273 6.7474 30.9961 6.59505 30.9336 6.46484C30.8711 6.33203 30.7799 6.22917 30.6602 6.15625C30.543 6.08333 30.3984 6.04688 30.2266 6.04688C30.0365 6.04688 29.8737 6.09115 29.7383 6.17969C29.6055 6.26562 29.5039 6.38542 29.4336 6.53906C29.3659 6.69271 29.332 6.86849 29.332 7.06641H28.2969C28.2969 6.73047 28.375 6.42448 28.5312 6.14844C28.6875 5.86979 28.9115 5.64714 29.2031 5.48047C29.4948 5.3138 29.8411 5.23047 30.2422 5.23047C30.6328 5.23047 30.9635 5.29557 31.2344 5.42578C31.5052 5.55339 31.7109 5.73568 31.8516 5.97266C31.9922 6.20964 32.0625 6.49219 32.0625 6.82031C32.0625 7.0026 32.0326 7.18229 31.9727 7.35938C31.9128 7.53646 31.8281 7.71224 31.7188 7.88672C31.612 8.05859 31.4844 8.23307 31.3359 8.41016C31.1875 8.58724 31.0221 8.76823 30.8398 8.95312L29.7305 10.1875H32.2617Z" fill="white"/>
</svg>
