<svg width="35" height="35" viewBox="0 0 35 35" fill="none" xmlns="http://www.w3.org/2000/svg">
    <path d="M18.6855 12.9292H25.1471" stroke="white" strokeWidth="2" stroke-linecap="round" stroke-linejoin="round" />
    <path d="M18.6855 21.5444H25.1471" stroke="white" strokeWidth="2" stroke-linecap="round" stroke-linejoin="round" />
    <path
        d="M21.9219 29.0768C28.0757 29.0768 30.5373 26.6153 30.5373 20.4614V13.0768C30.5373 6.92296 28.0757 4.46143 21.9219 4.46143H14.5373C8.38341 4.46143 5.92188 6.92296 5.92188 13.0768V20.4614C5.92188 26.6153 8.38341 29.0768 14.5373 29.0768H21.9219Z"
        stroke="white" strokeWidth="2" stroke-linecap="round" stroke-linejoin="round" />
    <path
        d="M0.999613 28.0916V20.7073C0.999613 19.8921 1.63072 19.2305 2.45678 19.2305C2.96875 19.2305 3.95332 19.5258 3.95332 20.7073V17.7536C3.95332 16.9384 4.58443 16.2768 5.41049 16.2768C5.90966 16.2768 6.90703 16.5721 6.90703 17.7536V15.7845C6.90703 14.9692 7.53814 14.3076 8.3642 14.3076C9.19124 14.3076 9.86074 14.9692 9.86074 15.7845V17.7536C9.86074 16.5721 10.8384 16.2768 11.3376 16.2768C12.1646 16.2768 12.8145 16.9571 12.8145 17.7733V26.1225M9.86074 17.7536V23.1687V17.7536ZM6.90703 17.7536V23.1687V17.7536ZM3.95332 17.7536V23.1687V17.7536Z"
        fill="#07080B" />
    <path
        d="M0.999613 28.0916V20.7073C0.999613 19.8921 1.63072 19.2305 2.45678 19.2305C2.96875 19.2305 3.95332 19.5258 3.95332 20.7073V17.7536C3.95332 16.9384 4.58443 16.2768 5.41049 16.2768C5.90966 16.2768 6.90703 16.5721 6.90703 17.7536V15.7845C6.90703 14.9692 7.53814 14.3076 8.3642 14.3076C9.19123 14.3076 9.86074 14.9692 9.86074 15.7845V17.7536C9.86074 16.5721 10.8384 16.2768 11.3376 16.2768C12.1646 16.2768 12.8145 16.9571 12.8145 17.7733V26.1225M9.86074 17.7536V23.1687M6.90703 17.7536V23.1687M3.95332 17.7536V23.1687"
        stroke="white" strokeWidth="1.5" stroke-linecap="round" stroke-linejoin="round" />
    <path
        d="M1.00074 28.0927C1.00074 32.031 4.08638 34.0001 7.89273 34.0001C11.6991 34.0001 13.0086 33.0156 15.9623 28.0927L17.509 25.5279C18.0368 24.6733 17.6144 23.5647 16.6416 23.2496C16.3235 23.1457 15.9812 23.1421 15.661 23.2393C15.3408 23.3365 15.0583 23.5299 14.8517 23.7931L12.8156 26.1561"
        fill="#07080B" />
    <path
        d="M1.00074 28.0927C1.00074 32.031 4.08638 34.0001 7.89273 34.0001C11.6991 34.0001 13.0086 33.0156 15.9623 28.0927L17.509 25.5279C18.0368 24.6733 17.6144 23.5647 16.6416 23.2496C16.3235 23.1457 15.9812 23.1421 15.661 23.2393C15.3408 23.3365 15.0583 23.5299 14.8517 23.7931L12.8156 26.1561"
        stroke="white" strokeWidth="1.5" stroke-linecap="round" stroke-linejoin="round" />
    <circle cx="27" cy="8" r="7.5" fill="#FF5F5F" stroke="#0D0F13" />
    <path
        d="M25.4961 5.29688V11H24.4609V6.50391L23.0898 6.95703V6.12109L25.3789 5.29688H25.4961ZM31.2617 10.1875V11H27.4102V10.3047L29.2578 8.30859C29.4505 8.08984 29.6029 7.89974 29.7148 7.73828C29.8268 7.57682 29.9062 7.43099 29.9531 7.30078C30.0026 7.16797 30.0273 7.04167 30.0273 6.92188C30.0273 6.7474 29.9961 6.59505 29.9336 6.46484C29.8711 6.33203 29.7799 6.22917 29.6602 6.15625C29.543 6.08333 29.3984 6.04688 29.2266 6.04688C29.0365 6.04688 28.8737 6.09115 28.7383 6.17969C28.6055 6.26562 28.5039 6.38542 28.4336 6.53906C28.3659 6.69271 28.332 6.86849 28.332 7.06641H27.2969C27.2969 6.73047 27.375 6.42448 27.5312 6.14844C27.6875 5.86979 27.9115 5.64714 28.2031 5.48047C28.4948 5.3138 28.8411 5.23047 29.2422 5.23047C29.6328 5.23047 29.9635 5.29557 30.2344 5.42578C30.5052 5.55339 30.7109 5.73568 30.8516 5.97266C30.9922 6.20964 31.0625 6.49219 31.0625 6.82031C31.0625 7.0026 31.0326 7.18229 30.9727 7.35938C30.9128 7.53646 30.8281 7.71224 30.7188 7.88672C30.612 8.05859 30.4844 8.23307 30.3359 8.41016C30.1875 8.58724 30.0221 8.76823 29.8398 8.95312L28.7305 10.1875H31.2617Z"
        fill="white" />
</svg>