<svg width="25" height="22" viewBox="0 0 25 22" fill="none" xmlns="http://www.w3.org/2000/svg">
    <path
        d="M12.2354 6.3235C12.3151 6.24385 12.4096 6.18066 12.5137 6.13756C12.6177 6.09445 12.7293 6.07227 12.8419 6.07227C12.9546 6.07227 13.0661 6.09445 13.1702 6.13756C13.2742 6.18066 13.3688 6.24385 13.4484 6.3235L16.9684 9.84317C17.1293 10.0041 17.2197 10.2223 17.2196 10.4498C17.2196 10.6773 17.1292 10.8955 16.9683 11.0564C16.8074 11.2172 16.5892 11.3076 16.3616 11.3075C16.1341 11.3075 15.9159 11.2171 15.7551 11.0562L13.6998 9.00094V14.3598C13.6998 14.5873 13.6095 14.8054 13.4486 14.9663C13.2877 15.1272 13.0696 15.2175 12.8421 15.2175C12.6146 15.2175 12.3964 15.1272 12.2356 14.9663C12.0747 14.8054 11.9844 14.5873 11.9844 14.3598V9.00094L9.9291 11.0562C9.76824 11.2171 9.55007 11.3074 9.32259 11.3074C9.0951 11.3074 8.87693 11.2171 8.71607 11.0562C8.55521 10.8953 8.46484 10.6772 8.46484 10.4497C8.46484 10.2222 8.55521 10.004 8.71607 9.84317L12.2354 6.3235Z"
        fill="white" />
    <path fill-rule="evenodd" clip-rule="evenodd"
        d="M0.683594 4.23969C0.683594 1.89786 2.24928 0 4.1805 0H21.5001C23.4313 0 24.997 1.89786 24.997 4.23969V17.7603C24.997 20.1017 23.4313 22 21.5001 22H4.1805C2.24928 22 0.683594 20.1017 0.683594 17.7603V4.23969ZM4.1805 2.07985C3.70803 2.07985 3.25492 2.3074 2.92083 2.71245C2.58675 3.1175 2.39906 3.66687 2.39906 4.23969V17.7603C2.39906 18.0439 2.44514 18.3248 2.53466 18.5868C2.62419 18.8489 2.75541 19.087 2.92083 19.2875C3.08625 19.4881 3.28264 19.6472 3.49877 19.7557C3.71491 19.8643 3.94656 19.9202 4.1805 19.9202H21.5001C21.734 19.9202 21.9657 19.8643 22.1818 19.7557C22.398 19.6472 22.5943 19.4881 22.7598 19.2875C22.9252 19.087 23.0564 18.8489 23.1459 18.5868C23.2355 18.3248 23.2815 18.0439 23.2815 17.7603V4.23929C23.2815 3.66647 23.0938 3.1171 22.7598 2.71205C22.4257 2.307 21.9726 2.07945 21.5001 2.07945L4.1805 2.07985Z"
        fill="white" />
</svg>