<svg width="16" height="16" viewBox="0 0 16 16" fill="none" xmlns="http://www.w3.org/2000/svg">
    <path
        d="M12.2804 6.54658V7.59991C12.2804 9.95991 10.3604 11.8799 8.00044 11.8799C5.64044 11.8799 3.72044 9.95991 3.72044 7.59991V6.53991C3.72044 6.27991 3.51378 6.07324 3.25378 6.07324C2.99378 6.07324 2.78711 6.27991 2.78711 6.53991V7.59324C2.78711 10.3066 4.87378 12.5399 7.53378 12.7799V14.1999C7.53378 14.4599 7.74044 14.6666 8.00044 14.6666C8.26044 14.6666 8.46711 14.4599 8.46711 14.1999V12.7799C11.1204 12.5466 13.2138 10.3066 13.2138 7.59324V6.53991C13.2071 6.28658 13.0004 6.07991 12.7471 6.07991C12.4871 6.07991 12.2804 6.28658 12.2804 6.54658Z"
        fill="white" />
    <path fill-rule="evenodd" clip-rule="evenodd"
        d="M5.05273 4.27967V7.69301C5.05273 9.31967 6.37273 10.6397 7.9994 10.6397C9.62607 10.6397 10.9461 9.31967 10.9461 7.69301V4.27967C10.9461 2.65301 9.62607 1.33301 7.9994 1.33301C6.37273 1.33301 5.05273 2.65301 5.05273 4.27967ZM8.4994 6.25301C8.46607 6.25301 8.43273 6.24634 8.3994 6.23967C8.1394 6.16634 7.86607 6.16634 7.60607 6.23967C7.39273 6.29967 7.18607 6.17301 7.13273 5.96634C7.07273 5.75967 7.1994 5.54634 7.40607 5.49301C7.7994 5.38634 8.21273 5.38634 8.60607 5.49301C8.80607 5.54634 8.92607 5.75967 8.87273 5.96634C8.82607 6.13967 8.67273 6.25301 8.4994 6.25301ZM8.8594 4.92634C8.81273 4.92634 8.77273 4.91967 8.72607 4.90634C8.2594 4.73301 7.7394 4.73301 7.27273 4.90634C7.07273 4.97967 6.84607 4.87301 6.77273 4.67301C6.6994 4.47301 6.80607 4.24634 7.00607 4.17967C7.64607 3.94634 8.35273 3.94634 8.99273 4.17967C9.19273 4.25301 9.2994 4.47301 9.22607 4.67301C9.16607 4.83301 9.0194 4.92634 8.8594 4.92634Z"
        fill="white" />
</svg>