<svg width="16" height="16" viewBox="0 0 16 16" fill="none" xmlns="http://www.w3.org/2000/svg">
    <path
        d="M10.9461 5.05456L6.09273 9.9079C5.45273 9.3279 5.05273 8.47457 5.05273 7.56123V4.28123C5.05273 2.9079 5.98607 1.7679 7.25273 1.44123C7.3794 1.4079 7.4994 1.51456 7.4994 1.64123V2.6679C7.4994 2.94123 7.72607 3.1679 7.9994 3.1679C8.27273 3.1679 8.4994 2.94123 8.4994 2.6679V1.64123C8.4994 1.51456 8.6194 1.4079 8.74607 1.44123C10.0127 1.7679 10.9461 2.9079 10.9461 4.28123V5.05456Z"
        fill="white" />
    <path
        d="M13.2078 7.60057C13.2078 10.3139 11.1211 12.5472 8.46781 12.7806V14.2006C8.46781 14.4606 8.26115 14.6672 8.00115 14.6672C7.74115 14.6672 7.53448 14.4606 7.53448 14.2006V12.7806C6.80781 12.7139 6.12115 12.5006 5.50781 12.1606L6.19448 11.4739C6.74115 11.7272 7.35448 11.8739 8.00115 11.8739C10.3611 11.8739 12.2811 9.9539 12.2811 7.60057V6.54057C12.2811 6.28723 12.4878 6.08057 12.7478 6.08057C13.0011 6.08057 13.2078 6.28723 13.2078 6.54057V7.60057Z"
        fill="white" />
    <path
        d="M10.9449 7.68542C10.9449 9.40542 9.46487 10.7854 7.70487 10.6188C7.5182 10.5988 7.33154 10.5654 7.1582 10.5054L10.9449 6.71875V7.68542Z"
        fill="white" />
    <path
        d="M13.7867 1.48594L4.82008 10.4526C4.13341 9.69927 3.72008 8.69927 3.72008 7.59927V6.53927C3.72008 6.28594 3.51341 6.07927 3.25341 6.07927C3.00008 6.07927 2.79341 6.28594 2.79341 6.53927V7.59927C2.79341 8.9526 3.31341 10.1859 4.16008 11.1126L1.48008 13.7926C1.28008 13.9926 1.28008 14.3193 1.48008 14.5193C1.58674 14.6126 1.71341 14.6659 1.84674 14.6659C1.98008 14.6659 2.10674 14.6126 2.20674 14.5126L14.5134 2.20594C14.7201 2.00594 14.7201 1.68594 14.5134 1.48594C14.3134 1.28594 13.9867 1.28594 13.7867 1.48594Z"
        fill="white" />
</svg>