<svg width="28" height="32" viewBox="0 0 28 32" fill="none" xmlns="http://www.w3.org/2000/svg">
    <path
        d="M18.5794 15.3333V7.99999C18.5794 5.05332 16.5593 2.66666 14.0653 2.66666C11.5713 2.66666 9.55127 5.05332 9.55127 7.99999V15.3333C9.55127 18.28 11.5713 20.6667 14.0653 20.6667C16.5593 20.6667 18.5794 18.28 18.5794 15.3333Z"
        stroke="#010101" strokeWidth="1.5" stroke-linecap="round" stroke-linejoin="round" />
    <path
        d="M5.43237 12.8665V15.1332C5.43237 20.7599 9.30316 25.3332 14.0655 25.3332C18.8278 25.3332 22.6986 20.7599 22.6986 15.1332V12.8665"
        stroke="#010101" strokeWidth="1.5" stroke-linecap="round" stroke-linejoin="round" />
    <path d="M12.4968 8.5735C13.5125 8.1335 14.6184 8.1335 15.6341 8.5735" stroke="#010101" strokeWidth="1.5"
        stroke-linecap="round" stroke-linejoin="round" />
    <path d="M13.1624 11.4001C13.7605 11.2134 14.3811 11.2134 14.9793 11.4001" stroke="#010101" strokeWidth="1.5"
        stroke-linecap="round" stroke-linejoin="round" />
    <path d="M14.0654 25.3333V29.3333" stroke="#010101" strokeWidth="1.5" stroke-linecap="round"
        stroke-linejoin="round" />
</svg>