<svg width="32" height="32" viewBox="0 0 32 32" fill="none" xmlns="http://www.w3.org/2000/svg">
    <path
        d="M16 20.8C17.273 20.8 18.4939 20.2943 19.3941 19.3941C20.2942 18.494 20.8 17.2731 20.8 16V8.00001C20.8 6.72697 20.2942 5.50607 19.3941 4.6059C18.4939 3.70573 17.273 3.20001 16 3.20001C14.7269 3.20001 13.506 3.70573 12.6058 4.6059C11.7057 5.50607 11.2 6.72697 11.2 8.00001V16C11.2 17.2731 11.7057 18.494 12.6058 19.3941C13.506 20.2943 14.7269 20.8 16 20.8ZM16 19.2C15.1513 19.2 14.3373 18.8629 13.7372 18.2628C13.1371 17.6626 12.8 16.8487 12.8 16V8.00001C12.8 7.15132 13.1371 6.33739 13.7372 5.73727C14.3373 5.13715 15.1513 4.80001 16 4.80001C16.8486 4.80001 17.6626 5.13715 18.2627 5.73727C18.8628 6.33739 19.2 7.15132 19.2 8.00001V16C19.2 16.8487 18.8628 17.6626 18.2627 18.2628C17.6626 18.8629 16.8486 19.2 16 19.2ZM7.99995 15.2C8.21212 15.2 8.41561 15.2843 8.56564 15.4343C8.71567 15.5844 8.79995 15.7878 8.79995 16C8.79995 16.9455 8.98618 17.8818 9.34802 18.7553C9.70985 19.6289 10.2402 20.4226 10.9088 21.0912C11.5774 21.7598 12.3711 22.2901 13.2446 22.6519C14.1182 23.0138 15.0544 23.2 16 23.2C16.9455 23.2 17.8817 23.0138 18.7553 22.6519C19.6288 22.2901 20.4225 21.7598 21.0911 21.0912C21.7597 20.4226 22.2901 19.6289 22.6519 18.7553C23.0137 17.8818 23.2 16.9455 23.2 16C23.2 15.7878 23.2842 15.5844 23.4343 15.4343C23.5843 15.2843 23.7878 15.2 24 15.2C24.2121 15.2 24.4156 15.2843 24.5656 15.4343C24.7157 15.5844 24.8 15.7878 24.8 16C24.8003 18.1956 23.9798 20.3121 22.4996 21.9338C21.0194 23.5554 18.9865 24.5652 16.8 24.7648V28C16.8 28.2122 16.7157 28.4157 16.5656 28.5657C16.4156 28.7157 16.2121 28.8 16 28.8C15.7878 28.8 15.5843 28.7157 15.4343 28.5657C15.2842 28.4157 15.2 28.2122 15.2 28V24.7648C13.0134 24.5652 10.9805 23.5554 9.5003 21.9338C8.02013 20.3121 7.19964 18.1956 7.19995 16C7.19995 15.7878 7.28424 15.5844 7.43427 15.4343C7.5843 15.2843 7.78778 15.2 7.99995 15.2Z"
        fill="#010101" />
    <line x1="7.35355" y1="8.64645" x2="25.0312" y2="26.3241" stroke="#010101" />
</svg>