<svg width="33" height="32" viewBox="0 0 33 32" fill="none" xmlns="http://www.w3.org/2000/svg">
    <path d="M25.5149 24.12L21.7549 27.88" stroke="white" strokeWidth="1.5" stroke-linecap="round"
        stroke-linejoin="round" />
    <path d="M25.5149 27.88L21.7549 24.12" stroke="white" strokeWidth="1.5" stroke-linecap="round"
        stroke-linejoin="round" />
    <path
        d="M16.7417 14.4933C13.5683 14.3867 11.0483 11.7867 11.0483 8.58666C11.0483 5.31999 13.6883 2.66666 16.9683 2.66666C20.235 2.66666 22.8883 5.31999 22.8883 8.58666C22.875 11.7867 20.355 14.3867 17.1817 14.4933C17.0483 14.48 16.8883 14.48 16.7417 14.4933Z"
        stroke="white" strokeWidth="1.5" stroke-linecap="round" stroke-linejoin="round" />
    <path
        d="M16.9683 29.0801C14.5416 29.0801 12.1283 28.4667 10.2883 27.2401C7.06162 25.0801 7.06162 21.5601 10.2883 19.4134C13.955 16.9601 19.9683 16.9601 23.635 19.4134"
        stroke="white" strokeWidth="1.5" stroke-linecap="round" stroke-linejoin="round" />
</svg>