<svg width="33" height="32" viewBox="0 0 33 32" fill="none" xmlns="http://www.w3.org/2000/svg">
    <path
        d="M26.0074 7.2159C29.9554 12.2466 29.9554 19.7529 26.0074 24.7836C25.5212 25.4012 24.6641 24.5609 25.1503 23.9446C28.715 19.3903 28.715 12.6098 25.1503 8.05551C24.6647 7.43852 25.5217 6.59891 26.0074 7.2159Z"
        fill="#010101" stroke="#010101" strokeWidth="0.5" />
    <path
        d="M23.642 9.51912C25.0484 11.3156 25.8232 13.618 25.8232 16.001C25.8232 18.384 25.0484 20.6864 23.642 22.4829C23.1564 23.0999 22.2942 22.266 22.7793 21.649C24.006 20.0842 24.6819 18.0776 24.6819 16.0007C24.6819 13.9238 24.006 11.9172 22.7793 10.3524C22.2937 9.73538 23.1564 8.90213 23.642 9.51912Z"
        fill="#010101" stroke="#010101" strokeWidth="0.5" />
    <path
        d="M21.2722 11.815C22.1812 12.9745 22.682 14.4614 22.682 16.0004C22.682 17.5393 22.1812 19.0262 21.2722 20.1857C20.7922 20.8027 19.9289 19.9631 20.4152 19.3461C21.1417 18.4192 21.5421 17.2306 21.5421 16.0004C21.5421 14.7701 21.1417 13.5816 20.4152 12.6546C19.9295 12.0376 20.7922 11.198 21.2722 11.815ZM16.9699 13.7741C18.0612 13.7741 18.9696 14.7855 18.9696 16.0004C18.9696 17.2153 18.0612 18.2266 16.9699 18.2266C15.8786 18.2266 14.9702 17.2153 14.9702 16.0004C14.9702 14.7855 15.8786 13.7741 16.9699 13.7741ZM12.6676 11.815C13.1476 11.198 14.0109 12.0376 13.5247 12.6546C12.7981 13.5816 12.3978 14.7701 12.3978 16.0004C12.3978 17.2306 12.7981 18.4192 13.5247 19.3461C14.0109 19.9637 13.1476 20.8027 12.6676 20.1857C11.7587 19.0262 11.2578 17.5393 11.2578 16.0004C11.2578 14.4614 11.7587 12.9745 12.6676 11.815Z"
        fill="#010101" stroke="#010101" strokeWidth="0.5" />
    <path
        d="M10.2964 9.51902C10.7821 8.90203 11.6443 9.73592 11.1592 10.3529C9.9325 11.9177 9.25659 13.9243 9.25659 16.0012C9.25659 18.0781 9.9325 20.0847 11.1592 21.6495C11.6448 22.2665 10.7821 23.0998 10.2964 22.4834C8.89003 20.6869 8.11523 18.3843 8.11523 16.0012C8.11523 13.6181 8.89003 11.3156 10.2964 9.51902Z"
        fill="#010101" stroke="#010101" strokeWidth="0.5" />
    <path
        d="M7.92929 7.21617C8.41551 6.59855 9.27253 7.4388 8.78631 8.05515C5.22166 12.6094 5.22166 19.3899 8.78631 23.9442C9.27253 24.5612 8.41551 25.4008 7.92929 24.7832C3.98125 19.7531 3.98125 12.2475 7.92929 7.21617Z"
        fill="#010101" stroke="#010101" strokeWidth="0.5" />
</svg>