<svg width="33" height="32" viewBox="0 0 33 32" fill="none" xmlns="http://www.w3.org/2000/svg">
    <path
        d="M26.0071 7.2159C29.9552 12.2466 29.9552 19.7529 26.0071 24.7836C25.5209 25.4012 24.6639 24.5609 25.1501 23.9446C28.7148 19.3903 28.7148 12.6098 25.1501 8.05551C24.6645 7.43852 25.5215 6.59891 26.0071 7.2159Z"
        fill="white" stroke="white" strokeWidth="0.5" />
    <path
        d="M23.6418 9.51912C25.0482 11.3156 25.823 13.618 25.823 16.001C25.823 18.384 25.0482 20.6864 23.6418 22.4829C23.1562 23.0999 22.294 22.266 22.7791 21.649C24.0058 20.0842 24.6817 18.0776 24.6817 16.0007C24.6817 13.9238 24.0058 11.9172 22.7791 10.3524C22.2934 9.73538 23.1562 8.90213 23.6418 9.51912Z"
        fill="white" stroke="white" strokeWidth="0.5" />
    <path
        d="M21.2719 11.815C22.1809 12.9745 22.6818 14.4614 22.6818 16.0004C22.6818 17.5393 22.1809 19.0262 21.2719 20.1857C20.792 20.8027 19.9287 19.9631 20.4149 19.3461C21.1415 18.4192 21.5418 17.2306 21.5418 16.0004C21.5418 14.7701 21.1415 13.5816 20.4149 12.6546C19.9293 12.0376 20.792 11.198 21.2719 11.815ZM16.9697 13.7741C18.0609 13.7741 18.9694 14.7855 18.9694 16.0004C18.9694 17.2153 18.0609 18.2266 16.9697 18.2266C15.8784 18.2266 14.9699 17.2153 14.9699 16.0004C14.9699 14.7855 15.8784 13.7741 16.9697 13.7741ZM12.6674 11.815C13.1473 11.198 14.0106 12.0376 13.5244 12.6546C12.7978 13.5816 12.3975 14.7701 12.3975 16.0004C12.3975 17.2306 12.7978 18.4192 13.5244 19.3461C14.0106 19.9637 13.1473 20.8027 12.6674 20.1857C11.7584 19.0262 11.2576 17.5393 11.2576 16.0004C11.2576 14.4614 11.7584 12.9745 12.6674 11.815Z"
        fill="white" stroke="white" strokeWidth="0.5" />
    <path
        d="M10.2964 9.51902C10.7821 8.90203 11.6443 9.73592 11.1592 10.3529C9.9325 11.9177 9.25659 13.9243 9.25659 16.0012C9.25659 18.0781 9.9325 20.0847 11.1592 21.6495C11.6448 22.2665 10.7821 23.0998 10.2964 22.4834C8.89003 20.6869 8.11523 18.3843 8.11523 16.0012C8.11523 13.6181 8.89003 11.3156 10.2964 9.51902Z"
        fill="white" stroke="white" strokeWidth="0.5" />
    <path
        d="M7.92929 7.21617C8.41551 6.59855 9.27253 7.4388 8.78631 8.05515C5.22166 12.6094 5.22166 19.3899 8.78631 23.9442C9.27253 24.5612 8.41551 25.4008 7.92929 24.7832C3.98125 19.7531 3.98125 12.2475 7.92929 7.21617Z"
        fill="white" stroke="white" strokeWidth="0.5" />
</svg>