<svg width="33" height="32" viewBox="0 0 33 32" fill="white" xmlns="http://www.w3.org/2000/svg">
<path d="M26.9683 7H23.5033L21.7995 4.445C21.7082 4.30819 21.5846 4.196 21.4396 4.11838C21.2946 4.04076 21.1327 4.0001 20.9683 4H12.9683C12.8038 4.0001 12.6419 4.04076 12.4969 4.11838C12.3519 4.196 12.2283 4.30819 12.137 4.445L10.432 7H6.96826C6.17261 7 5.40955 7.31607 4.84694 7.87868C4.28433 8.44129 3.96826 9.20435 3.96826 10V24C3.96826 24.7956 4.28433 25.5587 4.84694 26.1213C5.40955 26.6839 6.17261 27 6.96826 27H26.9683C27.7639 27 28.527 26.6839 29.0896 26.1213C29.6522 25.5587 29.9683 24.7956 29.9683 24V10C29.9683 9.20435 29.6522 8.44129 29.0896 7.87868C28.527 7.31607 27.7639 7 26.9683 7ZM27.9683 24C27.9683 24.2652 27.8629 24.5196 27.6754 24.7071C27.4878 24.8946 27.2335 25 26.9683 25H6.96826C6.70305 25 6.44869 24.8946 6.26116 24.7071C6.07362 24.5196 5.96826 24.2652 5.96826 24V10C5.96826 9.73478 6.07362 9.48043 6.26116 9.29289C6.44869 9.10536 6.70305 9 6.96826 9H10.9683C11.1329 9.00011 11.2951 8.95954 11.4403 8.88191C11.5856 8.80428 11.7094 8.69199 11.8008 8.555L13.5033 6H20.432L22.1358 8.555C22.2272 8.69199 22.351 8.80428 22.4962 8.88191C22.6414 8.95954 22.8036 9.00011 22.9683 9H26.9683C27.2335 9 27.4878 9.10536 27.6754 9.29289C27.8629 9.48043 27.9683 9.73478 27.9683 10V24ZM22.9683 12V15C22.9683 15.2652 22.8629 15.5196 22.6754 15.7071C22.4878 15.8946 22.2335 16 21.9683 16H18.9683C18.703 16 18.4487 15.8946 18.2612 15.7071C18.0736 15.5196 17.9683 15.2652 17.9683 15C17.9683 14.7348 18.0736 14.4804 18.2612 14.2929C18.4487 14.1054 18.703 14 18.9683 14H19.612C18.9213 13.3948 18.0439 13.0448 17.1263 13.0081C16.2087 12.9715 15.3063 13.2506 14.5695 13.7987C14.3575 13.9582 14.0908 14.0269 13.8282 13.9898C13.5655 13.9526 13.3283 13.8126 13.1689 13.6006C13.0094 13.3886 12.9407 13.1219 12.9779 12.8593C13.015 12.5966 13.155 12.3595 13.367 12.2C14.4786 11.3724 15.8415 10.9533 17.2261 11.0131C18.6106 11.073 19.9322 11.6083 20.9683 12.5288V12C20.9683 11.7348 21.0736 11.4804 21.2612 11.2929C21.4487 11.1054 21.703 11 21.9683 11C22.2335 11 22.4878 11.1054 22.6754 11.2929C22.8629 11.4804 22.9683 11.7348 22.9683 12ZM20.767 19.4C20.9264 19.6119 20.9951 19.8784 20.9581 20.1409C20.9211 20.4034 20.7813 20.6405 20.5695 20.8C19.4579 21.6276 18.095 22.0467 16.7104 21.9869C15.3259 21.927 14.0043 21.3917 12.9683 20.4713V21C12.9683 21.2652 12.8629 21.5196 12.6754 21.7071C12.4878 21.8946 12.2335 22 11.9683 22C11.703 22 11.4487 21.8946 11.2612 21.7071C11.0736 21.5196 10.9683 21.2652 10.9683 21V18C10.9683 17.7348 11.0736 17.4804 11.2612 17.2929C11.4487 17.1054 11.703 17 11.9683 17H14.9683C15.2335 17 15.4878 17.1054 15.6754 17.2929C15.8629 17.4804 15.9683 17.7348 15.9683 18C15.9683 18.2652 15.8629 18.5196 15.6754 18.7071C15.4878 18.8946 15.2335 19 14.9683 19H14.3245C15.0153 19.6052 15.8926 19.9552 16.8102 19.9919C17.7278 20.0285 18.6302 19.7494 19.367 19.2013C19.579 19.042 19.8456 18.9735 20.1082 19.0107C20.3707 19.048 20.6077 19.188 20.767 19.4Z" fill="white"/>
</svg>
