<svg width="40" height="40" viewBox="0 0 40 40" fill="none" xmlns="http://www.w3.org/2000/svg">
    <path
        d="M33.3332 17.4998C32.8911 17.4998 32.4672 17.6754 32.1547 17.988C31.8421 18.3006 31.6665 18.7245 31.6665 19.1665V30.8332C31.6665 31.2752 31.4909 31.6991 31.1784 32.0117C30.8658 32.3242 30.4419 32.4998 29.9998 32.4998H6.6665C6.22448 32.4998 5.80055 32.3242 5.48799 32.0117C5.17543 31.6991 4.99984 31.2752 4.99984 30.8332V17.4998C4.99984 17.0578 5.17543 16.6339 5.48799 16.3213C5.80055 16.0088 6.22448 15.8332 6.6665 15.8332H9.99984C10.3633 15.8521 10.7229 15.7516 11.0239 15.547C11.3248 15.3423 11.5505 15.0448 11.6665 14.6998L12.5665 11.9665C12.6783 11.6355 12.8913 11.3479 13.1755 11.1446C13.4596 10.9412 13.8004 10.8323 14.1498 10.8332H23.3332C23.7752 10.8332 24.1991 10.6576 24.5117 10.345C24.8242 10.0325 24.9998 9.60853 24.9998 9.1665C24.9998 8.72448 24.8242 8.30055 24.5117 7.98799C24.1991 7.67543 23.7752 7.49984 23.3332 7.49984H14.0665C13.0191 7.5018 11.9987 7.83264 11.1494 8.44568C10.3002 9.05872 9.66485 9.92299 9.33317 10.9165L8.79984 12.5832H6.6665C5.34042 12.5832 4.06865 13.11 3.13097 14.0476C2.19329 14.9853 1.6665 16.2571 1.6665 17.5832V30.9165C1.6665 32.2426 2.19329 33.5144 3.13097 34.452C4.06865 35.3897 5.34042 35.9165 6.6665 35.9165H29.9998C31.3259 35.9165 32.5977 35.3897 33.5354 34.452C34.4731 33.5144 34.9998 32.2426 34.9998 30.9165V19.2498C35.0111 19.0241 34.9764 18.7983 34.8977 18.5864C34.819 18.3745 34.6981 18.1808 34.5422 18.0171C34.3862 17.8534 34.1987 17.7231 33.9908 17.6342C33.783 17.5453 33.5592 17.4996 33.3332 17.4998ZM18.3332 15.8332C16.5651 15.8332 14.8694 16.5355 13.6191 17.7858C12.3689 19.036 11.6665 20.7317 11.6665 22.4998C11.6665 24.2679 12.3689 25.9636 13.6191 27.2139C14.8694 28.4641 16.5651 29.1665 18.3332 29.1665C20.1013 29.1665 21.797 28.4641 23.0472 27.2139C24.2975 25.9636 24.9998 24.2679 24.9998 22.4998C24.9998 20.7317 24.2975 19.036 23.0472 17.7858C21.797 16.5355 20.1013 15.8332 18.3332 15.8332ZM18.3332 25.8332C17.4491 25.8332 16.6013 25.482 15.9761 24.8569C15.351 24.2317 14.9998 23.3839 14.9998 22.4998C14.9998 21.6158 15.351 20.7679 15.9761 20.1428C16.6013 19.5177 17.4491 19.1665 18.3332 19.1665C19.2172 19.1665 20.0651 19.5177 20.6902 20.1428C21.3153 20.7679 21.6665 21.6158 21.6665 22.4998C21.6665 23.3839 21.3153 24.2317 20.6902 24.8569C20.0651 25.482 19.2172 25.8332 18.3332 25.8332ZM36.6665 7.49984H34.9998V5.83317C34.9998 5.39114 34.8242 4.96722 34.5117 4.65466C34.1991 4.3421 33.7752 4.1665 33.3332 4.1665C32.8911 4.1665 32.4672 4.3421 32.1547 4.65466C31.8421 4.96722 31.6665 5.39114 31.6665 5.83317V7.49984H29.9998C29.5578 7.49984 29.1339 7.67543 28.8213 7.98799C28.5088 8.30055 28.3332 8.72448 28.3332 9.1665C28.3332 9.60853 28.5088 10.0325 28.8213 10.345C29.1339 10.6576 29.5578 10.8332 29.9998 10.8332H31.6665V12.4998C31.6665 12.9419 31.8421 13.3658 32.1547 13.6783C32.4672 13.9909 32.8911 14.1665 33.3332 14.1665C33.7752 14.1665 34.1991 13.9909 34.5117 13.6783C34.8242 13.3658 34.9998 12.9419 34.9998 12.4998V10.8332H36.6665C37.1085 10.8332 37.5325 10.6576 37.845 10.345C38.1576 10.0325 38.3332 9.60853 38.3332 9.1665C38.3332 8.72448 38.1576 8.30055 37.845 7.98799C37.5325 7.67543 37.1085 7.49984 36.6665 7.49984Z"
        fill="white" />
</svg>