<svg width="31" height="32" viewBox="0 0 31 32" fill="none" xmlns="http://www.w3.org/2000/svg">
<path d="M4.79561 26.74L8.37412 25.33L9.00044 25.7C10.4393 26.548 12.039 27 13.7165 27C19.3195 27 23.8731 21.788 23.8731 16C23.8731 10.212 19.3195 5 13.7165 5C8.11343 5 3.55989 10.212 3.55989 16C3.55989 18.16 4.22007 20.352 5.43378 22.226L6.01779 23.126L4.79392 26.738L4.79561 26.74ZM3.59883 29.32C3.44564 29.3806 3.28097 29.3882 3.12426 29.3418C2.96755 29.2954 2.82535 29.197 2.71445 29.0582C2.60356 28.9194 2.5286 28.746 2.49844 28.5585C2.46828 28.371 2.48417 28.1772 2.54423 28L4.08803 23.44C2.67965 21.26 1.86713 18.652 1.86713 16C1.86713 9.372 6.94542 3 13.7165 3C20.4875 3 25.5658 9.372 25.5658 16C25.5658 22.628 20.4875 29 13.7165 29C11.8175 29.0063 9.94348 28.4886 8.24377 27.488L3.59883 29.318V29.32Z" fill="white"/>
<path d="M13.7167 17.5999C13.5389 17.5999 13.3628 17.5585 13.1985 17.4781C13.0342 17.3977 12.8849 17.2799 12.7592 17.1313C12.6334 16.9827 12.5337 16.8063 12.4656 16.6122C12.3976 16.4181 12.3625 16.21 12.3625 15.9999C12.3625 15.7898 12.3976 15.5818 12.4656 15.3876C12.5337 15.1935 12.6334 15.0171 12.7592 14.8686C12.8849 14.72 13.0342 14.6021 13.1985 14.5217C13.3628 14.4413 13.5389 14.3999 13.7167 14.3999C14.0759 14.3999 14.4204 14.5685 14.6743 14.8686C14.9283 15.1686 15.071 15.5756 15.071 15.9999C15.071 16.4243 14.9283 16.8312 14.6743 17.1313C14.4204 17.4314 14.0759 17.5999 13.7167 17.5999ZM18.795 17.5999C18.6172 17.5999 18.4411 17.5585 18.2768 17.4781C18.1125 17.3977 17.9632 17.2799 17.8375 17.1313C17.7117 16.9827 17.612 16.8063 17.5439 16.6122C17.4759 16.4181 17.4408 16.21 17.4408 15.9999C17.4408 15.7898 17.4759 15.5818 17.5439 15.3876C17.612 15.1935 17.7117 15.0171 17.8375 14.8686C17.9632 14.72 18.1125 14.6021 18.2768 14.5217C18.4411 14.4413 18.6172 14.3999 18.795 14.3999C19.1542 14.3999 19.4987 14.5685 19.7526 14.8686C20.0066 15.1686 20.1493 15.5756 20.1493 15.9999C20.1493 16.4243 20.0066 16.8312 19.7526 17.1313C19.4987 17.4314 19.1542 17.5999 18.795 17.5999ZM8.63845 17.5999C8.46062 17.5999 8.28452 17.5585 8.12022 17.4781C7.95592 17.3977 7.80663 17.2799 7.68088 17.1313C7.55513 16.9827 7.45538 16.8063 7.38732 16.6122C7.31927 16.4181 7.28424 16.21 7.28424 15.9999C7.28424 15.7898 7.31927 15.5818 7.38732 15.3876C7.45538 15.1935 7.55513 15.0171 7.68088 14.8686C7.80663 14.72 7.95592 14.6021 8.12022 14.5217C8.28452 14.4413 8.46062 14.3999 8.63845 14.3999C8.99761 14.3999 9.34206 14.5685 9.59603 14.8686C9.84999 15.1686 9.99267 15.5756 9.99267 15.9999C9.99267 16.4243 9.84999 16.8312 9.59603 17.1313C9.34206 17.4314 8.99761 17.5999 8.63845 17.5999Z" fill="white"/>
<path d="M30.1442 8C30.1442 12.2236 27.2616 15.5 23.8731 15.5C20.4846 15.5 17.6021 12.2236 17.6021 8C17.6021 3.77645 20.4846 0.5 23.8731 0.5C27.2616 0.5 30.1442 3.77645 30.1442 8Z" fill="#FF5F5F" stroke="#0D0F13"/>
<path d="M23.5646 10.1875V11H19.7131V10.3047L21.5607 8.30859C21.7534 8.08984 21.9058 7.89974 22.0177 7.73828C22.1297 7.57682 22.2092 7.43099 22.256 7.30078C22.3055 7.16797 22.3302 7.04167 22.3302 6.92188C22.3302 6.7474 22.299 6.59505 22.2365 6.46484C22.174 6.33203 22.0829 6.22917 21.9631 6.15625C21.8459 6.08333 21.7013 6.04688 21.5295 6.04688C21.3394 6.04688 21.1766 6.09115 21.0412 6.17969C20.9084 6.26562 20.8068 6.38542 20.7365 6.53906C20.6688 6.69271 20.6349 6.86849 20.6349 7.06641H19.5998C19.5998 6.73047 19.6779 6.42448 19.8342 6.14844C19.9904 5.86979 20.2144 5.64714 20.506 5.48047C20.7977 5.3138 21.1441 5.23047 21.5451 5.23047C21.9357 5.23047 22.2664 5.29557 22.5373 5.42578C22.8081 5.55339 23.0138 5.73568 23.1545 5.97266C23.2951 6.20964 23.3654 6.49219 23.3654 6.82031C23.3654 7.0026 23.3355 7.18229 23.2756 7.35938C23.2157 7.53646 23.131 7.71224 23.0217 7.88672C22.9149 8.05859 22.7873 8.23307 22.6388 8.41016C22.4904 8.58724 22.325 8.76823 22.1427 8.95312L21.0334 10.1875H23.5646ZM28.1349 10.1875V11H24.2834V10.3047L26.131 8.30859C26.3237 8.08984 26.4761 7.89974 26.5881 7.73828C26.7 7.57682 26.7795 7.43099 26.8263 7.30078C26.8758 7.16797 26.9006 7.04167 26.9006 6.92188C26.9006 6.7474 26.8693 6.59505 26.8068 6.46484C26.7443 6.33203 26.6532 6.22917 26.5334 6.15625C26.4162 6.08333 26.2717 6.04688 26.0998 6.04688C25.9097 6.04688 25.7469 6.09115 25.6115 6.17969C25.4787 6.26562 25.3771 6.38542 25.3068 6.53906C25.2391 6.69271 25.2052 6.86849 25.2052 7.06641H24.1701C24.1701 6.73047 24.2482 6.42448 24.4045 6.14844C24.5607 5.86979 24.7847 5.64714 25.0763 5.48047C25.368 5.3138 25.7144 5.23047 26.1154 5.23047C26.506 5.23047 26.8368 5.29557 27.1076 5.42578C27.3784 5.55339 27.5842 5.73568 27.7248 5.97266C27.8654 6.20964 27.9357 6.49219 27.9357 6.82031C27.9357 7.0026 27.9058 7.18229 27.8459 7.35938C27.786 7.53646 27.7013 7.71224 27.592 7.88672C27.4852 8.05859 27.3576 8.23307 27.2092 8.41016C27.0607 8.58724 26.8954 8.76823 26.7131 8.95312L25.6037 10.1875H28.1349Z" fill="white"/>
</svg>
