<svg width="33" height="33" viewBox="0 0 33 33" fill="none" xmlns="http://www.w3.org/2000/svg">
<path d="M4.73161 3.31828C4.64006 3.22003 4.52966 3.14123 4.407 3.08657C4.28433 3.03191 4.15191 3.00252 4.01764 3.00016C3.88337 2.99779 3.75 3.02249 3.62548 3.07278C3.50096 3.12308 3.38785 3.19793 3.29289 3.29289C3.19793 3.38785 3.12308 3.50096 3.07278 3.62548C3.02249 3.75 2.99779 3.88337 3.00016 4.01764C3.00252 4.15191 3.03191 4.28433 3.08657 4.407C3.14123 4.52966 3.22003 4.64006 3.31828 4.73161L11.0249 12.4383V16.3583C11.0248 17.3276 11.2889 18.2787 11.7888 19.1092C12.2887 19.9398 13.0055 20.6183 13.8621 21.072C14.7188 21.5257 15.6829 21.7374 16.6508 21.6842C17.6187 21.631 18.5538 21.3151 19.3556 20.7703L20.8836 22.2983C19.6743 23.205 18.2031 23.694 16.6916 23.6916H16.0249L15.7369 23.6863C13.9317 23.6119 12.2252 22.8425 10.9742 21.5388C9.72324 20.2352 9.02479 18.4984 9.02494 16.6916V16.0249L9.01561 15.8889C8.98108 15.6379 8.85255 15.4094 8.65601 15.2495C8.45947 15.0896 8.20956 15.0103 7.95678 15.0276C7.70401 15.0448 7.46721 15.1574 7.29424 15.3426C7.12127 15.5277 7.02502 15.7716 7.02494 16.0249V16.6916L7.03028 17.0063C7.10763 19.2223 8.00034 21.3318 9.53723 22.9302C11.0741 24.5286 13.147 25.5034 15.3583 25.6676V28.6916L15.3676 28.8276C15.4021 29.0786 15.5307 29.3071 15.7272 29.467C15.9238 29.6269 16.1737 29.7062 16.4264 29.689C16.6792 29.6717 16.916 29.5591 17.089 29.374C17.262 29.1889 17.3582 28.945 17.3583 28.6916L17.3596 25.6676C19.1681 25.5355 20.894 24.8576 22.3089 23.7236L27.9836 29.3983C28.1721 29.5805 28.4247 29.6814 28.6869 29.6793C28.9491 29.6771 29.1999 29.5721 29.3854 29.3868C29.5709 29.2014 29.6762 28.9507 29.6786 28.6885C29.681 28.4263 29.5804 28.1736 29.3983 27.9849L4.73161 3.31828ZM23.2863 19.0436L24.8143 20.5716C25.3935 19.3603 25.6934 18.0343 25.6916 16.6916V16.0249L25.6823 15.8889C25.6477 15.6379 25.5192 15.4094 25.3227 15.2495C25.1261 15.0896 24.8762 15.0103 24.6234 15.0276C24.3707 15.0448 24.1339 15.1574 23.9609 15.3426C23.7879 15.5277 23.6917 15.7716 23.6916 16.0249V16.6916L23.6863 16.9796C23.658 17.6839 23.5231 18.3798 23.2863 19.0436ZM11.2089 6.96628L21.5983 17.3556C21.6596 17.0329 21.6916 16.6996 21.6916 16.3583V8.35828C21.6924 7.06485 21.2231 5.81521 20.3711 4.84202C19.5191 3.86884 18.3425 3.23843 17.0603 3.06817C15.7782 2.89791 14.4778 3.1994 13.4014 3.9165C12.3249 4.63361 11.5458 5.71747 11.2089 6.96628Z" fill="white"/>
</svg>
