/Users/akshatlakshkar/Downloads/gallery.svg/Users/akshatlakshkar/Downloads/gallery.svg/Users/akshatlakshkar/Downloads/gallery.svg<svg width="32" height="32" viewBox="0 0 32 32" fill="none" xmlns="http://www.w3.org/2000/svg">
<path d="M4.37333 2.96C4.28179 2.86175 4.17138 2.78295 4.04872 2.72829C3.92605 2.67364 3.79364 2.64425 3.65936 2.64188C3.52509 2.63951 3.39172 2.66421 3.2672 2.7145C3.14269 2.7648 3.02958 2.83966 2.93462 2.93462C2.83966 3.02958 2.7648 3.14269 2.7145 3.2672C2.66421 3.39172 2.63951 3.52509 2.64188 3.65936C2.64425 3.79364 2.67364 3.92605 2.72829 4.04872C2.78295 4.17138 2.86175 4.28179 2.96 4.37333L5.04933 6.46267C4.33271 6.82393 3.73049 7.37711 3.30979 8.06054C2.88909 8.74397 2.66644 9.5308 2.66667 10.3333V21.6667C2.66667 22.8159 3.12321 23.9181 3.93587 24.7308C4.74853 25.5435 5.85073 26 7 26H18.3333C19.1357 26.0004 19.9225 25.7779 20.6059 25.3574C21.2893 24.937 21.8426 24.335 22.204 23.6187L27.6253 29.0413C27.8129 29.2289 28.0674 29.3343 28.3327 29.3343C28.598 29.3343 28.8524 29.2289 29.04 29.0413C29.2276 28.8537 29.333 28.5993 29.333 28.334C29.333 28.0687 29.2276 27.8143 29.04 27.6267L4.37333 2.96ZM20.6347 22.0493C20.5441 22.5943 20.2631 23.0894 19.8417 23.4466C19.4202 23.8038 18.8858 23.9999 18.3333 24H7C6.38116 24 5.78767 23.7542 5.35009 23.3166C4.9125 22.879 4.66667 22.2855 4.66667 21.6667V10.3333C4.66667 9.17467 5.51067 8.21333 6.61733 8.03067L20.636 22.0493H20.6347ZM20.6667 16.424V10.3333C20.6667 9.7145 20.4208 9.121 19.9833 8.68342C19.5457 8.24583 18.9522 8 18.3333 8H12.2427L10.2427 6H18.3333C19.4826 6 20.5848 6.45655 21.3975 7.2692C22.2101 8.08186 22.6667 9.18406 22.6667 10.3333V10.564L27.8187 7.47333C27.9704 7.38225 28.1436 7.33307 28.3206 7.33081C28.4975 7.32855 28.6719 7.37329 28.8259 7.46046C28.9799 7.54764 29.1081 7.67412 29.1972 7.82701C29.2864 7.97989 29.3333 8.15369 29.3333 8.33067V23.6667C29.3333 24.068 29.1067 24.3907 28.796 24.5533L27.3333 23.0907V10.0973L22.6667 12.8987V18.424L20.6667 16.424Z" fill="white"/>
</svg>
