<svg width="223" height="223" viewBox="0 0 223 223" fill="none" xmlns="http://www.w3.org/2000/svg">
    <path
        d="M222.488 111.508C222.488 133.461 215.978 154.92 203.782 173.174C191.586 191.427 174.25 205.654 153.969 214.055C133.687 222.456 111.369 224.654 89.838 220.371C68.3068 216.088 48.5292 205.517 33.0061 189.994C17.4831 174.471 6.91171 154.693 2.6289 133.162C-1.65391 111.631 0.544187 89.3131 8.94522 69.0312C17.3462 48.7493 31.5729 31.4141 49.8261 19.2177C68.0793 7.02129 89.5393 0.51148 111.492 0.51148C126.079 0.473678 140.53 3.31888 154.013 8.88356C167.497 14.4482 179.748 22.6227 190.063 32.9372C200.377 43.2517 208.552 55.5028 214.116 68.9865C219.681 82.4703 222.526 96.9207 222.488 111.508Z"
        fill="#0A0A0A" />
    <path
        d="M111.49 222.999C81.9211 222.999 53.5631 211.252 32.6547 190.344C11.7462 169.436 4.3793e-07 141.078 4.3793e-07 111.509C-0.0019537 89.4552 6.53599 67.8964 18.787 49.5588C31.038 31.2212 48.4519 16.9285 68.8262 8.48809C89.2006 0.0476944 111.62 -2.16121 133.25 2.14073C154.88 6.44266 174.748 17.0622 190.342 32.6564C205.937 48.2505 216.556 68.1188 220.858 89.7486C225.16 111.378 222.951 133.798 214.511 154.173C206.07 174.547 191.777 191.961 173.44 204.212C155.102 216.463 133.544 223.001 111.49 222.999ZM111.49 1.00656C89.6349 1.00656 68.2704 7.4874 50.0984 19.6295C31.9265 31.7716 17.7631 49.0297 9.3995 69.2213C1.03586 89.4129 -1.15245 111.631 3.1113 133.067C7.37505 154.502 17.8993 174.191 33.3533 189.645C48.8073 205.099 68.4969 215.624 89.9322 219.887C111.368 224.151 133.586 221.963 153.777 213.599C173.969 205.236 191.227 191.072 203.369 172.9C215.511 154.728 221.992 133.364 221.992 111.509C221.95 82.2145 210.295 54.1322 189.581 33.4181C168.867 12.704 140.784 1.04838 111.49 1.00656Z"
        fill="#D9D9D9" />
    <path
        d="M130.409 184.901C130.298 184.899 130.19 184.861 130.103 184.792C130.001 184.71 129.936 184.592 129.921 184.462C129.906 184.333 129.943 184.203 130.024 184.1C130.266 183.571 130.474 183.026 130.647 182.47C132.237 177.965 136.417 166.118 145.764 167.877C146.366 165.634 149.321 156.208 157.166 152.77C162.214 150.547 168.232 151.317 175.049 155.062C175.543 151.999 178.072 140.054 187.973 132.821C195.679 127.199 205.965 125.668 218.602 128.286C218.665 128.299 218.726 128.324 218.779 128.361C218.833 128.397 218.879 128.444 218.915 128.498C218.951 128.552 218.976 128.612 218.988 128.676C219 128.74 219 128.805 218.987 128.869C218.956 128.997 218.878 129.108 218.767 129.18C218.657 129.252 218.524 129.278 218.394 129.254C206.093 126.695 196.065 128.167 188.595 133.621C177.578 141.664 175.978 155.753 175.968 155.892C175.959 155.974 175.93 156.053 175.883 156.122C175.837 156.191 175.774 156.248 175.701 156.287C175.628 156.326 175.547 156.346 175.464 156.346C175.381 156.346 175.3 156.326 175.227 156.287C168.439 152.414 162.511 151.535 157.6 153.688C149.311 157.324 146.673 168.509 146.653 168.588C146.624 168.715 146.545 168.825 146.435 168.894C146.324 168.965 146.189 168.99 146.06 168.964C137.227 166.899 133.295 178.053 131.625 182.796C131.443 183.466 131.177 184.11 130.834 184.713C130.784 184.776 130.719 184.826 130.645 184.859C130.571 184.891 130.49 184.906 130.409 184.901Z"
        fill="#D1D3D4" />
    <path d="M133.535 199.285H89.4492L100.999 131.97H121.985L133.535 199.285Z" fill="#0A0A0A" />
    <path
        d="M133.532 199.781H89.4455C89.3737 199.782 89.3025 199.767 89.2372 199.737C89.1718 199.708 89.1138 199.664 89.0674 199.609C89.0211 199.554 88.9875 199.49 88.9692 199.42C88.9508 199.351 88.9482 199.278 88.9614 199.207L100.512 131.893C100.53 131.777 100.589 131.672 100.678 131.596C100.766 131.52 100.879 131.478 100.996 131.478H121.982C122.098 131.478 122.211 131.52 122.3 131.596C122.388 131.672 122.447 131.777 122.466 131.893L134.016 199.207C134.029 199.278 134.026 199.351 134.008 199.42C133.99 199.49 133.956 199.554 133.91 199.609C133.863 199.664 133.805 199.708 133.74 199.737C133.675 199.767 133.604 199.782 133.532 199.781ZM90.0581 198.792H132.959L121.576 132.466H101.421L90.0581 198.792Z"
        fill="#D9D9D9" />
    <path d="M122.599 142.663H99.8345L97.0977 131.725H125.336L122.599 142.663Z" fill="#0A0A0A" />
    <path
        d="M122.595 143.126H99.8706C99.7599 143.125 99.6525 143.088 99.5649 143.02C99.4774 142.952 99.4147 142.857 99.3865 142.75L96.6694 131.842C96.6493 131.771 96.6469 131.696 96.6624 131.624C96.6779 131.552 96.7108 131.484 96.7583 131.427C96.8016 131.366 96.8594 131.315 96.9265 131.281C96.9937 131.247 97.0682 131.229 97.1436 131.23H125.322C125.398 131.229 125.472 131.247 125.54 131.281C125.607 131.315 125.664 131.366 125.708 131.427C125.755 131.485 125.788 131.552 125.805 131.624C125.822 131.695 125.823 131.77 125.807 131.842L123.07 142.79C123.035 142.888 122.971 142.973 122.886 143.033C122.801 143.093 122.7 143.126 122.595 143.126ZM100.216 142.138H122.21L124.7 132.257H97.7266L100.216 142.138Z"
        fill="#D9D9D9" />
    <path
        d="M85.6929 97.5759C85.6929 97.5759 73.7574 105.036 69.6076 117.475C65.4579 129.914 74.9134 153.934 74.9134 153.934L96.6502 130.398L85.6929 97.5759Z"
        fill="#0A0A0A" />
    <path
        d="M74.9327 154.428H74.8437C74.7623 154.415 74.6857 154.381 74.6216 154.329C74.5575 154.277 74.508 154.209 74.4781 154.132C74.0829 153.144 65.0128 129.787 69.1625 117.327C73.3123 104.868 85.3268 97.2506 85.4454 97.1716C85.5134 97.1398 85.5876 97.1233 85.6627 97.1233C85.7378 97.1233 85.812 97.1398 85.8801 97.1716C85.9492 97.2 86.0114 97.243 86.0626 97.2975C86.1137 97.3521 86.1525 97.4169 86.1765 97.4877L97.0943 130.281C97.1237 130.364 97.13 130.454 97.1126 130.541C97.0952 130.628 97.0548 130.709 96.9955 130.775L75.2587 154.31C75.1684 154.388 75.0522 154.43 74.9327 154.428ZM85.4454 98.3473C83.1037 99.9578 73.5889 106.993 70.1012 117.624C66.4652 128.492 73.579 148.876 75.1105 153.015L96.0865 130.291L85.4454 98.3473Z"
        fill="#D9D9D9" />
    <path
        d="M137.289 97.5787C137.289 97.5787 149.225 105.038 153.375 117.478C157.524 129.917 148.069 153.936 148.069 153.936L126.332 130.401L137.289 97.5787Z"
        fill="#0A0A0A" />
    <path
        d="M148.049 154.428C147.981 154.429 147.913 154.415 147.85 154.388C147.787 154.361 147.73 154.32 147.684 154.27L125.947 130.735C125.888 130.669 125.847 130.588 125.83 130.501C125.813 130.414 125.819 130.324 125.848 130.241L136.786 97.4279C136.81 97.3571 136.849 97.2922 136.9 97.2377C136.951 97.1832 137.013 97.1402 137.082 97.1117C137.15 97.0799 137.224 97.0635 137.3 97.0635C137.375 97.0635 137.449 97.0799 137.517 97.1117C137.635 97.1908 149.65 104.809 153.8 117.268C157.95 129.727 148.86 153.084 148.484 154.072C148.454 154.149 148.405 154.217 148.341 154.269C148.277 154.321 148.2 154.355 148.119 154.368L148.049 154.428ZM126.915 130.28L147.891 153.005C149.423 148.865 156.537 128.521 152.901 117.613C149.363 106.982 139.898 99.9474 137.556 98.3369L126.915 130.28Z"
        fill="#D9D9D9" />
    <path
        d="M130.716 135.875C136.644 121.676 140.389 101.096 140.389 78.193C140.389 43.4832 121.24 25.4121 113.969 19.8C113.179 19.1895 112.21 18.8583 111.212 18.8583C110.214 18.8583 109.244 19.1895 108.455 19.8C101.183 25.4121 82.0352 43.5129 82.0352 78.193C82.0352 101.096 85.7699 121.667 91.708 135.875C91.708 135.875 97.6363 138.839 111.212 138.839C124.788 138.839 130.716 135.875 130.716 135.875Z"
        fill="#3578EA" />
    <path
        d="M108.458 19.8C99.5337 26.9099 92.5525 36.1616 88.1641 46.6944H134.266C129.877 36.1616 122.896 26.9099 113.972 19.8C113.182 19.1895 112.213 18.8583 111.215 18.8583C110.217 18.8583 109.248 19.1895 108.458 19.8Z"
        fill="#0A0A0A" />
    <path
        d="M134.261 47.1879H88.1595C88.0786 47.1875 87.999 47.1672 87.9278 47.1288C87.8566 47.0905 87.7958 47.0352 87.7509 46.9679C87.7061 46.9006 87.6784 46.8232 87.6704 46.7427C87.6624 46.6622 87.6743 46.581 87.705 46.5061C92.1106 35.8875 99.1454 26.5644 108.148 19.4141C109.025 18.7364 110.102 18.3687 111.21 18.3687C112.319 18.3687 113.396 18.7364 114.273 19.4141C123.275 26.5644 130.31 35.8875 134.716 46.5061C134.747 46.581 134.758 46.6622 134.75 46.7427C134.742 46.8232 134.715 46.9006 134.67 46.9679C134.625 47.0352 134.564 47.0905 134.493 47.1288C134.422 47.1672 134.342 47.1875 134.261 47.1879ZM88.9104 46.1998H133.51C129.156 36.0204 122.338 27.0839 113.671 20.1947C112.965 19.6451 112.095 19.3466 111.201 19.3466C110.306 19.3466 109.437 19.6451 108.73 20.1947C100.068 27.0836 93.2562 36.0207 88.9104 46.1998Z"
        fill="#D9D9D9" />
    <path
        d="M112.361 90.2848C122.189 90.2848 130.156 82.3179 130.156 72.4902C130.156 62.6626 122.189 54.6957 112.361 54.6957C102.533 54.6957 94.5664 62.6626 94.5664 72.4902C94.5664 82.3179 102.533 90.2848 112.361 90.2848Z"
        fill="#0A0A0A" />
    <path
        d="M112.361 90.7604C108.743 90.7624 105.207 89.6914 102.198 87.683C99.1888 85.6747 96.8432 82.8191 95.4575 79.4774C94.0717 76.1358 93.7082 72.4583 94.4127 68.91C95.1173 65.3617 96.8583 62.1021 99.4156 59.5434C101.973 56.9847 105.232 55.2419 108.78 54.5354C112.327 53.829 116.005 54.1906 119.348 55.5745C122.69 56.9584 125.547 59.3025 127.557 62.3102C129.567 65.318 130.64 68.8543 130.64 72.4719C130.634 77.319 128.707 81.9662 125.281 85.3946C121.854 88.8229 117.208 90.7526 112.361 90.7604ZM112.361 55.1911C108.938 55.1891 105.592 56.2024 102.746 58.1026C99.899 60.0029 97.68 62.7048 96.3694 65.8664C95.0587 69.0281 94.7153 72.5075 95.3825 75.8644C96.0497 79.2212 97.6976 82.3048 100.118 84.7249C102.538 87.145 105.621 88.793 108.978 89.4602C112.335 90.1274 115.815 89.784 118.976 88.4733C122.138 87.1627 124.84 84.9437 126.74 82.0971C128.64 79.2505 129.654 75.9043 129.652 72.4817C129.646 67.8976 127.823 63.5027 124.582 60.2612C121.34 57.0197 116.945 55.1963 112.361 55.1911Z"
        fill="#D9D9D9" />
    <path
        d="M112.36 83.4678C118.422 83.4678 123.337 78.5532 123.337 72.4907C123.337 66.4282 118.422 61.5136 112.36 61.5136C106.297 61.5136 101.383 66.4282 101.383 72.4907C101.383 78.5532 106.297 83.4678 112.36 83.4678Z"
        fill="#D9D9D9" />
    <path
        d="M112.358 83.9633C110.089 83.9633 107.871 83.2906 105.985 82.0301C104.098 80.7696 102.628 78.9781 101.76 76.882C100.892 74.786 100.665 72.4795 101.107 70.2543C101.55 68.0292 102.642 65.9852 104.247 64.3809C105.851 62.7767 107.895 61.6842 110.12 61.2415C112.345 60.7989 114.652 61.0261 116.748 61.8943C118.844 62.7625 120.635 64.2328 121.896 66.1192C123.156 68.0056 123.829 70.2235 123.829 72.4922C123.829 75.5346 122.62 78.4523 120.469 80.6035C118.318 82.7548 115.4 83.9633 112.358 83.9633ZM112.358 62.0092C110.284 62.0092 108.258 62.624 106.534 63.7759C104.81 64.9278 103.466 66.565 102.673 68.4805C101.879 70.3961 101.672 72.5039 102.076 74.5374C102.481 76.5709 103.479 78.4388 104.945 79.9049C106.411 81.371 108.279 82.3694 110.313 82.7739C112.346 83.1784 114.454 82.9708 116.37 82.1773C118.285 81.3839 119.922 80.0402 121.074 78.3163C122.226 76.5924 122.841 74.5656 122.841 72.4922C122.838 69.7128 121.733 67.0479 119.768 65.0825C117.802 63.1171 115.137 62.0118 112.358 62.0092Z"
        fill="#D9D9D9" />
    <path
        d="M121.064 71.9866C120.946 71.9878 120.833 71.9464 120.744 71.8701C120.655 71.7938 120.596 71.6877 120.579 71.5717C119.453 63.8847 112.675 64.2207 112.389 64.2404C112.26 64.2461 112.134 64.2021 112.036 64.1176C111.939 64.033 111.877 63.9143 111.865 63.7859C111.86 63.7215 111.867 63.6567 111.887 63.5953C111.907 63.5339 111.939 63.4771 111.982 63.4283C112.024 63.3795 112.076 63.3396 112.134 63.3111C112.192 63.2826 112.255 63.266 112.319 63.2623C112.398 63.2623 120.293 62.8275 121.548 71.4333C121.565 71.5615 121.531 71.6913 121.453 71.7947C121.376 71.8982 121.261 71.9671 121.133 71.9866H121.064Z"
        fill="#0A0A0A" />
    <path
        d="M108.527 65.2781C108.453 65.277 108.38 65.2597 108.313 65.2272C108.247 65.1948 108.188 65.1481 108.141 65.0904C108.062 64.9868 108.026 64.8558 108.043 64.7262C108.06 64.5966 108.127 64.4788 108.23 64.3987C108.831 63.9572 109.529 63.6658 110.266 63.549C110.396 63.535 110.527 63.5726 110.631 63.6538C110.734 63.735 110.802 63.8534 110.819 63.9838C110.827 64.0474 110.823 64.1121 110.806 64.174C110.789 64.2359 110.76 64.2938 110.72 64.3444C110.681 64.395 110.632 64.4372 110.576 64.4685C110.52 64.4999 110.458 64.5199 110.394 64.5272C109.829 64.6173 109.294 64.8409 108.833 65.1793C108.744 65.2442 108.637 65.2788 108.527 65.2781Z"
        fill="#0A0A0A" />
    <path
        d="M128.564 131.102H128.406C128.283 131.06 128.182 130.97 128.125 130.854C128.068 130.738 128.058 130.603 128.099 130.48C131.171 120.714 133.656 110.773 135.539 100.71C135.551 100.646 135.575 100.584 135.611 100.528C135.647 100.473 135.693 100.425 135.747 100.387C135.801 100.35 135.862 100.323 135.927 100.309C135.991 100.295 136.057 100.294 136.122 100.305C136.187 100.317 136.249 100.341 136.305 100.377C136.36 100.413 136.408 100.459 136.446 100.513C136.483 100.567 136.51 100.628 136.524 100.692C136.538 100.757 136.539 100.823 136.527 100.888C134.644 110.997 132.147 120.982 129.048 130.786C129.012 130.884 128.946 130.968 128.858 131.025C128.771 131.082 128.668 131.109 128.564 131.102Z"
        fill="#0A0A0A" />
    <path
        d="M114.029 158.757C113.906 158.755 113.788 158.708 113.699 158.624C113.609 158.539 113.554 158.425 113.544 158.303L112.556 145.676C112.551 145.611 112.559 145.546 112.579 145.485C112.599 145.424 112.631 145.367 112.673 145.318C112.716 145.269 112.767 145.229 112.825 145.201C112.883 145.172 112.946 145.156 113.011 145.152C113.075 145.147 113.14 145.154 113.202 145.174C113.263 145.194 113.32 145.226 113.369 145.269C113.417 145.311 113.457 145.363 113.486 145.421C113.514 145.479 113.531 145.542 113.535 145.607L114.523 158.224C114.528 158.289 114.52 158.354 114.501 158.416C114.481 158.478 114.449 158.535 114.406 158.585C114.364 158.635 114.312 158.675 114.254 158.705C114.196 158.735 114.133 158.752 114.068 158.757H114.029Z"
        fill="#D9D9D9" />
    <path
        d="M103.85 166.128H103.781C103.651 166.11 103.533 166.043 103.454 165.939C103.374 165.835 103.339 165.704 103.356 165.574L105.075 152.266C105.092 152.135 105.16 152.016 105.265 151.935C105.37 151.854 105.502 151.819 105.633 151.836C105.764 151.853 105.883 151.921 105.964 152.026C106.044 152.131 106.08 152.263 106.063 152.394L104.344 165.703C104.327 165.822 104.268 165.93 104.177 166.008C104.086 166.086 103.97 166.129 103.85 166.128Z"
        fill="#D9D9D9" />
    <path
        d="M120.167 168.952C120.05 168.953 119.936 168.912 119.847 168.835C119.758 168.759 119.7 168.653 119.683 168.537L117.885 157.669C117.865 157.539 117.896 157.407 117.971 157.3C118.047 157.193 118.161 157.12 118.29 157.096C118.419 157.075 118.552 157.106 118.659 157.182C118.766 157.258 118.839 157.372 118.863 157.501L120.661 168.369C120.681 168.497 120.65 168.628 120.574 168.734C120.498 168.839 120.384 168.91 120.256 168.932L120.167 168.952Z"
        fill="#D9D9D9" />
    <path
        d="M61.5292 78.9619C61.3989 78.9594 61.2748 78.9065 61.1827 78.8144C61.0906 78.7223 61.0377 78.5981 61.0352 78.4679V75.316C61.0352 75.185 61.0872 75.0594 61.1799 74.9667C61.2725 74.8741 61.3982 74.822 61.5292 74.822C61.6602 74.822 61.7859 74.8741 61.8785 74.9667C61.9712 75.0594 62.0232 75.185 62.0232 75.316V78.4679C62.0232 78.5989 61.9712 78.7246 61.8785 78.8172C61.7859 78.9098 61.6602 78.9619 61.5292 78.9619Z"
        fill="#D1D3D4" />
    <path
        d="M61.5292 85.5418C61.3982 85.5418 61.2725 85.4898 61.1799 85.3971C61.0872 85.3045 61.0352 85.1788 61.0352 85.0478V81.8663C61.0352 81.7353 61.0872 81.6097 61.1799 81.517C61.2725 81.4244 61.3982 81.3723 61.5292 81.3723C61.6602 81.3723 61.7859 81.4244 61.8785 81.517C61.9712 81.6097 62.0232 81.7353 62.0232 81.8663V85.0182C62.0272 85.0855 62.0175 85.1529 61.9945 85.2163C61.9714 85.2797 61.9357 85.3378 61.8894 85.3868C61.8431 85.4359 61.7873 85.4749 61.7253 85.5016C61.6634 85.5283 61.5966 85.542 61.5292 85.5418Z"
        fill="#D1D3D4" />
    <path
        d="M66.3998 80.6722H63.2479C63.1169 80.6722 62.9913 80.6202 62.8986 80.5275C62.806 80.4349 62.7539 80.3092 62.7539 80.1782C62.7539 80.0472 62.806 79.9215 62.8986 79.8289C62.9913 79.7363 63.1169 79.6842 63.2479 79.6842H66.3998C66.5308 79.6842 66.6564 79.7363 66.7491 79.8289C66.8417 79.9215 66.8938 80.0472 66.8938 80.1782C66.8938 80.3092 66.8417 80.4349 66.7491 80.5275C66.6564 80.6202 66.5308 80.6722 66.3998 80.6722Z"
        fill="#D1D3D4" />
    <path
        d="M59.8159 80.6722H56.6542C56.5232 80.6722 56.3975 80.6202 56.3049 80.5275C56.2122 80.4349 56.1602 80.3092 56.1602 80.1782C56.1627 80.048 56.2155 79.9238 56.3076 79.8317C56.3998 79.7396 56.5239 79.6867 56.6542 79.6842H59.8159C59.9461 79.6867 60.0703 79.7396 60.1624 79.8317C60.2545 79.9238 60.3074 80.048 60.3099 80.1782C60.3099 80.3092 60.2579 80.4349 60.1652 80.5275C60.0726 80.6202 59.9469 80.6722 59.8159 80.6722Z"
        fill="#D1D3D4" />
    <path
        d="M31.0839 91.9856C30.9528 91.9856 30.8272 91.9336 30.7345 91.8409C30.6419 91.7483 30.5898 91.6226 30.5898 91.4916V88.3398C30.5898 88.2088 30.6419 88.0831 30.7345 87.9905C30.8272 87.8978 30.9528 87.8458 31.0839 87.8458C31.2149 87.8458 31.3405 87.8978 31.4332 87.9905C31.5258 88.0831 31.5779 88.2088 31.5779 88.3398V91.4916C31.5779 91.6226 31.5258 91.7483 31.4332 91.8409C31.3405 91.9336 31.2149 91.9856 31.0839 91.9856Z"
        fill="#D1D3D4" />
    <path
        d="M31.0839 98.5759C30.9528 98.5759 30.8272 98.5238 30.7345 98.4311C30.6419 98.3385 30.5898 98.2129 30.5898 98.0818V94.93C30.5898 94.799 30.6419 94.6733 30.7345 94.5807C30.8272 94.488 30.9528 94.436 31.0839 94.436C31.2149 94.436 31.3405 94.488 31.4332 94.5807C31.5258 94.6733 31.5779 94.799 31.5779 94.93V98.0818C31.5779 98.2129 31.5258 98.3385 31.4332 98.4311C31.3405 98.5238 31.2149 98.5759 31.0839 98.5759Z"
        fill="#D1D3D4" />
    <path
        d="M35.9545 93.7245H32.8026C32.6716 93.7245 32.5459 93.6724 32.4533 93.5798C32.3606 93.4871 32.3086 93.3615 32.3086 93.2305C32.3086 93.0994 32.3606 92.9738 32.4533 92.8812C32.5459 92.7885 32.6716 92.7365 32.8026 92.7365H35.9545C36.0855 92.7365 36.2111 92.7885 36.3038 92.8812C36.3964 92.9738 36.4485 93.0994 36.4485 93.2305C36.4485 93.3615 36.3964 93.4871 36.3038 93.5798C36.2111 93.6724 36.0855 93.7245 35.9545 93.7245Z"
        fill="#D1D3D4" />
    <path
        d="M29.3646 93.7245H26.2128C26.0817 93.7245 25.9561 93.6724 25.8634 93.5798C25.7708 93.4871 25.7188 93.3615 25.7188 93.2305C25.7188 93.0994 25.7708 92.9738 25.8634 92.8812C25.9561 92.7885 26.0817 92.7365 26.2128 92.7365H29.3646C29.4956 92.7365 29.6213 92.7885 29.7139 92.8812C29.8066 92.9738 29.8586 93.0994 29.8586 93.2305C29.8586 93.3615 29.8066 93.4871 29.7139 93.5798C29.6213 93.6724 29.4956 93.7245 29.3646 93.7245Z"
        fill="#D1D3D4" />
    <path
        d="M159.045 70.2566C158.914 70.2566 158.788 70.2046 158.695 70.1119C158.603 70.0193 158.551 69.8936 158.551 69.7626V66.6108C158.551 66.4798 158.603 66.3541 158.695 66.2615C158.788 66.1688 158.914 66.1168 159.045 66.1168C159.176 66.1168 159.301 66.1688 159.394 66.2615C159.487 66.3541 159.539 66.4798 159.539 66.6108V69.7626C159.539 69.8936 159.487 70.0193 159.394 70.1119C159.301 70.2046 159.176 70.2566 159.045 70.2566Z"
        fill="#D1D3D4" />
    <path
        d="M159.045 76.8382C158.914 76.8382 158.788 76.7862 158.695 76.6935C158.603 76.6009 158.551 76.4752 158.551 76.3442V73.1924C158.553 73.0622 158.606 72.938 158.698 72.8459C158.79 72.7538 158.915 72.7009 159.045 72.6984C159.176 72.6984 159.301 72.7504 159.394 72.8431C159.487 72.9357 159.539 73.0614 159.539 73.1924V76.3442C159.539 76.4752 159.487 76.6009 159.394 76.6935C159.301 76.7862 159.176 76.8382 159.045 76.8382Z"
        fill="#D1D3D4" />
    <path
        d="M163.915 71.9869H160.764C160.633 71.9869 160.507 71.9349 160.414 71.8422C160.322 71.7496 160.27 71.6239 160.27 71.4929C160.27 71.3619 160.322 71.2362 160.414 71.1436C160.507 71.0509 160.633 70.9989 160.764 70.9989H163.915C164.046 70.9989 164.172 71.0509 164.265 71.1436C164.357 71.2362 164.409 71.3619 164.409 71.4929C164.409 71.6239 164.357 71.7496 164.265 71.8422C164.172 71.9349 164.046 71.9869 163.915 71.9869Z"
        fill="#D1D3D4" />
    <path
        d="M157.333 71.9869H154.182C154.05 71.9869 153.925 71.9349 153.832 71.8422C153.74 71.7496 153.688 71.6239 153.688 71.4929C153.688 71.3619 153.74 71.2362 153.832 71.1436C153.925 71.0509 154.05 70.9989 154.182 70.9989H157.333C157.464 70.9989 157.59 71.0509 157.683 71.1436C157.775 71.2362 157.827 71.3619 157.827 71.4929C157.825 71.6231 157.772 71.7473 157.68 71.8394C157.588 71.9316 157.464 71.9844 157.333 71.9869Z"
        fill="#D1D3D4" />
    <path
        d="M194.685 88.6949C194.554 88.6949 194.429 88.6428 194.336 88.5502C194.243 88.4575 194.191 88.3319 194.191 88.2009V85.049C194.191 84.918 194.243 84.7923 194.336 84.6997C194.429 84.607 194.554 84.555 194.685 84.555C194.816 84.555 194.942 84.607 195.035 84.6997C195.127 84.7923 195.179 84.918 195.179 85.049V88.2009C195.179 88.3319 195.127 88.4575 195.035 88.5502C194.942 88.6428 194.816 88.6949 194.685 88.6949Z"
        fill="#D1D3D4" />
    <path
        d="M194.685 95.2765C194.554 95.2765 194.429 95.2244 194.336 95.1318C194.243 95.0391 194.191 94.9135 194.191 94.7825V91.6306C194.191 91.4996 194.243 91.3739 194.336 91.2813C194.429 91.1886 194.554 91.1366 194.685 91.1366C194.816 91.1391 194.94 91.192 195.032 91.2841C195.124 91.3762 195.177 91.5004 195.179 91.6306V94.7825C195.179 94.9135 195.127 95.0391 195.035 95.1318C194.942 95.2244 194.816 95.2765 194.685 95.2765Z"
        fill="#D1D3D4" />
    <path
        d="M199.544 90.4137H196.392C196.262 90.4112 196.138 90.3584 196.046 90.2663C195.954 90.1742 195.901 90.05 195.898 89.9197C195.898 89.7887 195.95 89.6631 196.043 89.5704C196.136 89.4778 196.261 89.4257 196.392 89.4257H199.544C199.675 89.4257 199.801 89.4778 199.894 89.5704C199.986 89.6631 200.038 89.7887 200.038 89.9197C200.038 90.0508 199.986 90.1764 199.894 90.2691C199.801 90.3617 199.675 90.4137 199.544 90.4137Z"
        fill="#D1D3D4" />
    <path
        d="M192.966 90.4137H189.814C189.683 90.4137 189.558 90.3617 189.465 90.2691C189.372 90.1764 189.32 90.0508 189.32 89.9197C189.32 89.7887 189.372 89.6631 189.465 89.5704C189.558 89.4778 189.683 89.4257 189.814 89.4257H192.966C193.097 89.4257 193.223 89.4778 193.316 89.5704C193.408 89.6631 193.46 89.7887 193.46 89.9197C193.46 90.0508 193.408 90.1764 193.316 90.2691C193.223 90.3617 193.097 90.4137 192.966 90.4137Z"
        fill="#D1D3D4" />
    <path
        d="M172.076 40.4486C171.945 40.4486 171.819 40.3965 171.727 40.3039C171.634 40.2113 171.582 40.0856 171.582 39.9546V36.8027C171.582 36.6717 171.634 36.5461 171.727 36.4534C171.819 36.3608 171.945 36.3087 172.076 36.3087C172.207 36.3087 172.333 36.3608 172.425 36.4534C172.518 36.5461 172.57 36.6717 172.57 36.8027V39.9546C172.57 40.0856 172.518 40.2113 172.425 40.3039C172.333 40.3965 172.207 40.4486 172.076 40.4486Z"
        fill="#D1D3D4" />
    <path
        d="M172.076 47.0387C171.945 47.0387 171.819 46.9867 171.727 46.894C171.634 46.8014 171.582 46.6757 171.582 46.5447V43.3929C171.582 43.2619 171.634 43.1362 171.727 43.0436C171.819 42.9509 171.945 42.8989 172.076 42.8989C172.207 42.8989 172.333 42.9509 172.425 43.0436C172.518 43.1362 172.57 43.2619 172.57 43.3929V46.5447C172.57 46.6757 172.518 46.8014 172.425 46.894C172.333 46.9867 172.207 47.0387 172.076 47.0387Z"
        fill="#D1D3D4" />
    <path
        d="M176.951 42.1675H173.799C173.668 42.1675 173.542 42.1154 173.449 42.0228C173.357 41.9301 173.305 41.8045 173.305 41.6735C173.305 41.5424 173.357 41.4168 173.449 41.3241C173.542 41.2315 173.668 41.1794 173.799 41.1794H176.951C177.082 41.1794 177.207 41.2315 177.3 41.3241C177.393 41.4168 177.445 41.5424 177.445 41.6735C177.445 41.8045 177.393 41.9301 177.3 42.0228C177.207 42.1154 177.082 42.1675 176.951 42.1675Z"
        fill="#D1D3D4" />
    <path
        d="M170.361 42.1675H167.209C167.078 42.1675 166.952 42.1154 166.86 42.0228C166.767 41.9301 166.715 41.8045 166.715 41.6735C166.715 41.5424 166.767 41.4168 166.86 41.3241C166.952 41.2315 167.078 41.1794 167.209 41.1794H170.361C170.492 41.1794 170.617 41.2315 170.71 41.3241C170.803 41.4168 170.855 41.5424 170.855 41.6735C170.855 41.8045 170.803 41.9301 170.71 42.0228C170.617 42.1154 170.492 42.1675 170.361 42.1675Z"
        fill="#D1D3D4" />
    <path
        d="M88.8411 196.193H88.7621C88.6326 196.178 88.5142 196.113 88.4328 196.011C88.3513 195.909 88.3134 195.779 88.3273 195.65C88.3273 195.442 90.6196 175.563 81.5296 167.214C77.8344 163.815 72.7065 162.758 66.2842 164.072C66.2137 164.089 66.1401 164.089 66.0697 164.072C65.9992 164.055 65.9339 164.021 65.8791 163.973C65.8219 163.931 65.7752 163.876 65.7426 163.812C65.7101 163.749 65.6925 163.679 65.6914 163.608C65.6914 163.42 65.0591 144.835 53.3311 137C46.4741 132.415 37.1668 132.297 25.666 136.674C25.5831 136.703 25.4938 136.711 25.4071 136.695C25.3205 136.68 25.2394 136.642 25.172 136.585C25.1049 136.525 25.0542 136.45 25.0247 136.365C24.9953 136.28 24.9882 136.189 25.004 136.101C25.004 136.022 26.7627 127.92 22.2968 123.612C19.1944 120.648 13.8195 120.104 6.33013 122.071C6.26718 122.088 6.20129 122.093 6.13643 122.085C6.07157 122.076 6.0091 122.055 5.95277 122.022C5.89645 121.988 5.84744 121.944 5.80871 121.891C5.76998 121.839 5.74233 121.779 5.72743 121.715C5.6941 121.589 5.71172 121.455 5.77646 121.342C5.84121 121.23 5.94785 121.147 6.07324 121.112C13.9183 119.057 19.6093 119.66 22.9884 122.91C26.9406 126.764 26.4762 133.127 26.1304 135.449C37.5719 131.259 46.8792 131.496 53.8843 136.19C60.2473 140.458 63.3893 147.68 64.901 152.986C65.8271 156.25 66.4131 159.601 66.6498 162.985C73.1412 161.78 78.3679 162.985 82.2015 166.483C91.657 175.178 89.4142 194.919 89.3154 195.748C89.3035 195.867 89.2489 195.978 89.1617 196.06C89.0745 196.142 88.9606 196.189 88.8411 196.193Z"
        fill="#D1D3D4" />
    <path
        d="M186.395 193.427C164.952 213.034 136.675 223.45 107.637 222.439C78.5989 221.429 51.1148 209.072 31.0859 188.023C31.8072 187.647 32.5482 187.302 33.309 187.035C52.8623 179.13 63.4935 195.423 63.4935 195.423C63.4935 195.423 68.5918 168.499 99.6359 168.499C130.68 168.499 137.903 189.683 137.903 189.683C137.903 189.683 144.275 176.838 158.306 177.767C172.336 178.696 174.46 196.223 174.46 196.223C178.219 194.525 182.273 193.575 186.395 193.427Z"
        fill="#0A0A0A" />
    <path
        d="M111.488 223C96.3769 223.064 81.4134 220.028 67.5223 214.08C53.6311 208.132 41.1075 199.398 30.7256 188.418C30.6725 188.362 30.6333 188.295 30.611 188.221C30.5887 188.147 30.5839 188.069 30.5972 187.993C30.6073 187.917 30.6361 187.845 30.6809 187.783C30.7258 187.721 30.7852 187.671 30.8541 187.638C31.5898 187.25 32.345 186.9 33.1167 186.59C43.412 182.411 51.2373 184.96 55.9897 187.835C58.7785 189.536 61.2412 191.721 63.2617 194.287C64.635 189.248 72.0848 168.015 99.6313 168.015C126.852 168.015 136.07 184.407 137.967 188.576C139.765 185.612 146.356 176.522 158.331 177.283C171.027 178.083 174.268 192.252 174.841 195.512C178.501 193.984 182.407 193.127 186.371 192.983C186.471 192.982 186.57 193.011 186.654 193.065C186.738 193.12 186.805 193.197 186.845 193.289C186.883 193.383 186.892 193.485 186.871 193.584C186.85 193.683 186.8 193.773 186.727 193.843C166.177 212.631 139.332 223.035 111.488 223ZM31.9014 188.161C51.7187 208.749 78.7407 220.859 107.295 221.949C135.85 223.04 163.717 213.026 185.047 194.011C181.48 194.281 177.987 195.166 174.722 196.629C174.652 196.665 174.574 196.684 174.495 196.684C174.416 196.684 174.338 196.665 174.268 196.629C174.199 196.59 174.14 196.536 174.095 196.471C174.051 196.406 174.022 196.331 174.011 196.253C173.546 193.209 172.609 190.255 171.234 187.499C168.27 181.7 163.943 178.607 158.321 178.232C144.775 177.382 138.451 189.752 138.392 189.871C138.347 189.957 138.279 190.029 138.195 190.078C138.111 190.127 138.015 190.151 137.918 190.147C137.82 190.142 137.726 190.107 137.648 190.047C137.57 189.987 137.513 189.905 137.483 189.811C137.404 189.604 129.974 168.964 99.6807 168.964C69.3875 168.964 64.062 195.206 63.9731 195.493C63.9547 195.589 63.9078 195.678 63.8384 195.748C63.769 195.818 63.6802 195.866 63.5835 195.885C63.4869 195.904 63.3867 195.894 63.2959 195.856C63.2051 195.817 63.1278 195.753 63.0739 195.67C61.0269 192.836 58.4293 190.443 55.4364 188.636C48.8166 184.683 41.4359 184.249 33.4921 187.47C32.9684 187.667 32.4448 187.904 31.9014 188.161Z"
        fill="#D9D9D9" />
    <path
        d="M149.628 198.793C149.559 198.793 149.49 198.779 149.427 198.749C149.364 198.72 149.308 198.678 149.263 198.625C142.9 191.6 137.406 189.841 133.859 189.604C131.739 189.41 129.606 189.814 127.704 190.77C127.593 190.825 127.466 190.837 127.346 190.803C127.227 190.769 127.125 190.692 127.061 190.586C126.996 190.48 126.974 190.354 126.998 190.233C127.021 190.111 127.09 190.003 127.19 189.93C127.289 189.871 137.278 183.913 149.994 197.963C150.055 198.035 150.095 198.123 150.109 198.217C150.122 198.31 150.109 198.406 150.071 198.492C150.033 198.579 149.971 198.653 149.893 198.706C149.814 198.759 149.723 198.789 149.628 198.793Z"
        fill="#D9D9D9" />
    <path
        d="M172.094 175.505C171.969 175.505 171.849 175.458 171.758 175.374C171.666 175.29 171.61 175.174 171.6 175.05C171.6 174.655 170.948 165.446 177.528 159.044C182.369 154.321 189.8 152.434 199.601 153.452C199.666 153.458 199.729 153.477 199.786 153.508C199.844 153.539 199.894 153.581 199.936 153.631C199.977 153.682 200.008 153.74 200.027 153.802C200.046 153.865 200.052 153.93 200.045 153.995C200.039 154.06 200.02 154.123 199.989 154.18C199.958 154.238 199.916 154.289 199.866 154.33C199.815 154.371 199.757 154.402 199.695 154.421C199.632 154.44 199.567 154.446 199.502 154.44C190.007 153.452 182.844 155.25 178.22 159.755C171.975 165.842 172.588 174.892 172.598 174.981C172.603 175.046 172.596 175.111 172.576 175.173C172.556 175.235 172.524 175.293 172.482 175.342C172.439 175.392 172.388 175.433 172.33 175.462C172.272 175.492 172.208 175.509 172.143 175.514L172.094 175.505Z"
        fill="#D1D3D4" />
    <path
        d="M56.6544 55.3088C53.9577 55.3088 51.3215 54.5091 49.0793 53.0109C46.837 51.5126 45.0894 49.3832 44.0574 46.8917C43.0254 44.4003 42.7554 41.6587 43.2815 39.0138C43.8076 36.3689 45.1062 33.9394 47.0131 32.0325C48.92 30.1256 51.3495 28.827 53.9944 28.3009C56.6393 27.7748 59.3809 28.0448 61.8723 29.0768C64.3638 30.1088 66.4932 31.8565 67.9915 34.0987C69.4897 36.341 70.2894 38.9771 70.2894 41.6739C70.2867 45.2893 68.8494 48.7558 66.2929 51.3123C63.7364 53.8688 60.2698 55.3062 56.6544 55.3088ZM56.6544 29.027C54.1531 29.027 51.708 29.7687 49.6282 31.1584C47.5485 32.548 45.9275 34.5232 44.9703 36.8341C44.0131 39.145 43.7626 41.6879 44.2506 44.1411C44.7386 46.5944 45.9431 48.8478 47.7118 50.6165C49.4805 52.3852 51.7339 53.5897 54.1872 54.0777C56.6404 54.5657 59.1833 54.3153 61.4942 53.358C63.8051 52.4008 65.7803 50.7798 67.1699 48.7001C68.5596 46.6203 69.3013 44.1752 69.3013 41.6739C69.2987 38.3205 67.9654 35.1052 65.5942 32.7341C63.2231 30.3629 60.0078 29.0296 56.6544 29.027Z"
        fill="#D1D3D4" />
    <path
        d="M40.4213 156.466C40.3287 156.466 40.2379 156.44 40.1593 156.391C40.0807 156.342 40.0174 156.272 39.9767 156.189C28.1202 131.488 10.7604 139.224 10.5925 139.303C10.4732 139.36 10.3365 139.366 10.2124 139.322C10.0882 139.277 9.98681 139.185 9.93047 139.066C9.87414 138.947 9.86747 138.81 9.91194 138.686C9.95641 138.562 10.0484 138.461 10.1676 138.404C10.3454 138.325 28.555 130.144 40.8659 155.754C40.8946 155.812 40.9114 155.876 40.9155 155.941C40.9196 156.006 40.9109 156.071 40.8897 156.132C40.8686 156.194 40.8356 156.251 40.7925 156.299C40.7494 156.348 40.6971 156.388 40.6387 156.416C40.5717 156.451 40.4968 156.468 40.4213 156.466Z"
        fill="#D1D3D4" />
</svg>