<svg width="25" height="25" viewBox="0 0 25 25" fill="none" xmlns="http://www.w3.org/2000/svg">
<g clip-path="url(#clip0_2329_148632)">
<path d="M3.37755 23.858H22.2347C23.1815 23.858 23.949 23.0905 23.949 22.1437V3.28655C23.949 2.33978 23.1815 1.57227 22.2347 1.57227H3.37755C2.43078 1.57227 1.66327 2.33978 1.66327 3.28655V22.1437C1.66327 23.0905 2.43078 23.858 3.37755 23.858Z" stroke="white" stroke-width="1.71429" stroke-linecap="round" stroke-linejoin="round"/>
<path d="M3.80612 23.8581L16.3204 12.0638C16.4744 11.9355 16.6685 11.8652 16.869 11.8652C17.0694 11.8652 17.2635 11.9355 17.4175 12.0638L23.949 16.7438" stroke="white" stroke-width="1.71429" stroke-linecap="round" stroke-linejoin="round"/>
<path d="M8.5204 11.0003C9.94057 11.0003 11.0918 9.84902 11.0918 8.42885C11.0918 7.00868 9.94057 5.85742 8.5204 5.85742C7.10024 5.85742 5.94897 7.00868 5.94897 8.42885C5.94897 9.84902 7.10024 11.0003 8.5204 11.0003Z" stroke="white" stroke-width="1.71429" stroke-linecap="round" stroke-linejoin="round"/>
</g>
<defs>
<clipPath id="clip0_2329_148632">
<rect width="24" height="24" fill="white" transform="translate(0.806122 0.714844)"/>
</clipPath>
</defs>
</svg>
