<svg width="30" height="35" viewBox="0 0 30 35" fill="none" xmlns="http://www.w3.org/2000/svg">
    <rect width="25.0008" height="29.5385" transform="translate(3.08789 2)" fill="white" />
    <path d="M15.9736 12.9291H21.4426" stroke="#010101" strokeWidth="2" stroke-linecap="round"
        stroke-linejoin="round" />
    <path d="M15.9736 21.5445H21.4426" stroke="#010101" strokeWidth="2" stroke-linecap="round"
        stroke-linejoin="round" />
    <path
        d="M18.7135 29.0769C23.922 29.0769 26.0054 26.6154 26.0054 20.4615V13.0769C26.0054 6.92309 23.922 4.46155 18.7135 4.46155H12.4633C7.25479 4.46155 5.17139 6.92309 5.17139 13.0769V20.4615C5.17139 26.6154 7.25479 29.0769 12.4633 29.0769H18.7135Z"
        stroke="#010101" strokeWidth="2" stroke-linecap="round" stroke-linejoin="round" />
    <path
        d="M1.00501 28.0918V20.7076C1.00501 19.8923 1.53917 19.2307 2.23833 19.2307C2.67165 19.2307 3.50498 19.5261 3.50498 20.7076V17.7539C3.50498 16.9386 4.03914 16.277 4.73829 16.277C5.16079 16.277 6.00495 16.5724 6.00495 17.7539V15.7847C6.00495 14.9695 6.5391 14.3079 7.23826 14.3079C7.93825 14.3079 8.50491 14.9695 8.50491 15.7847V17.7539C8.50491 16.5724 9.3324 16.277 9.7549 16.277C10.4549 16.277 11.0049 16.9573 11.0049 17.7735V26.1227M8.50491 17.7539V23.169V17.7539ZM6.00495 17.7539V23.169V17.7539ZM3.50498 17.7539V23.169V17.7539Z"
        fill="white" />
    <path
        d="M1.00501 28.0918V20.7076C1.00501 19.8923 1.53917 19.2307 2.23833 19.2307C2.67165 19.2307 3.50498 19.5261 3.50498 20.7076V17.7539C3.50498 16.9386 4.03914 16.277 4.73829 16.277C5.16079 16.277 6.00495 16.5724 6.00495 17.7539V15.7847C6.00495 14.9695 6.5391 14.3079 7.23826 14.3079C7.93825 14.3079 8.50491 14.9695 8.50491 15.7847V17.7539C8.50491 16.5724 9.3324 16.277 9.7549 16.277C10.4549 16.277 11.0049 16.9573 11.0049 17.7735V26.1227M8.50491 17.7539V23.169M6.00495 17.7539V23.169M3.50498 17.7539V23.169"
        stroke="#010101" strokeWidth="1.5" stroke-linecap="round" stroke-linejoin="round" />
    <path
        d="M1.00502 28.0928C1.00502 32.0311 3.61666 34.0002 6.83828 34.0002C10.0599 34.0002 11.1682 33.0156 13.6682 28.0928L14.9773 25.528C15.424 24.6734 15.0665 23.5648 14.2432 23.2497C13.974 23.1458 13.6842 23.1422 13.4132 23.2394C13.1422 23.3366 12.9031 23.53 12.7282 23.7932L11.0049 26.1561"
        fill="white" />
    <path
        d="M1.00502 28.0928C1.00502 32.0311 3.61666 34.0002 6.83828 34.0002C10.0599 34.0002 11.1682 33.0156 13.6682 28.0928L14.9773 25.528C15.424 24.6734 15.0665 23.5648 14.2432 23.2497C13.974 23.1458 13.6842 23.1422 13.4132 23.2394C13.1422 23.3366 12.9031 23.53 12.7282 23.7932L11.0049 26.1561"
        stroke="#010101" strokeWidth="1.5" stroke-linecap="round" stroke-linejoin="round" />
    <path
        d="M29.2819 8C29.2819 12.2236 26.3993 15.5 23.0108 15.5C19.6223 15.5 16.7397 12.2236 16.7397 8C16.7397 3.77645 19.6223 0.5 23.0108 0.5C26.3993 0.5 29.2819 3.77645 29.2819 8Z"
        fill="white" stroke="#0D0F13" />
    <path
        d="M21.507 5.29688V11H20.4718V6.50391L19.1008 6.95703V6.12109L21.3898 5.29688H21.507ZM27.2726 10.1875V11H23.4211V10.3047L25.2687 8.30859C25.4614 8.08984 25.6138 7.89974 25.7258 7.73828C25.8377 7.57682 25.9172 7.43099 25.964 7.30078C26.0135 7.16797 26.0383 7.04167 26.0383 6.92188C26.0383 6.7474 26.007 6.59505 25.9445 6.46484C25.882 6.33203 25.7909 6.22917 25.6711 6.15625C25.5539 6.08333 25.4093 6.04688 25.2375 6.04688C25.0474 6.04688 24.8846 6.09115 24.7492 6.17969C24.6164 6.26562 24.5148 6.38542 24.4445 6.53906C24.3768 6.69271 24.3429 6.86849 24.3429 7.06641H23.3078C23.3078 6.73047 23.3859 6.42448 23.5422 6.14844C23.6984 5.86979 23.9224 5.64714 24.214 5.48047C24.5057 5.3138 24.8521 5.23047 25.2531 5.23047C25.6437 5.23047 25.9745 5.29557 26.2453 5.42578C26.5161 5.55339 26.7218 5.73568 26.8625 5.97266C27.0031 6.20964 27.0734 6.49219 27.0734 6.82031C27.0734 7.0026 27.0435 7.18229 26.9836 7.35938C26.9237 7.53646 26.839 7.71224 26.7297 7.88672C26.6229 8.05859 26.4953 8.23307 26.3468 8.41016C26.1984 8.58724 26.033 8.76823 25.8508 8.95312L24.7414 10.1875H27.2726Z"
        fill="white" />
</svg>