<svg width="28" height="32" viewBox="0 0 28 32" fill="none" xmlns="http://www.w3.org/2000/svg">
<path d="M18.5795 15.3333V7.99999C18.5795 5.05332 16.5594 2.66666 14.0654 2.66666C11.5714 2.66666 9.55139 5.05332 9.55139 7.99999V15.3333C9.55139 18.28 11.5714 20.6667 14.0654 20.6667C16.5594 20.6667 18.5795 18.28 18.5795 15.3333Z" stroke="white" strokeWidth="1.5" stroke-linecap="round" stroke-linejoin="round"/>
<path d="M5.4325 12.8665V15.1332C5.4325 20.7599 9.30329 25.3332 14.0656 25.3332C18.8279 25.3332 22.6987 20.7599 22.6987 15.1332V12.8665" stroke="white" strokeWidth="1.5" stroke-linecap="round" stroke-linejoin="round"/>
<path d="M12.4969 8.5735C13.5126 8.1335 14.6185 8.1335 15.6342 8.5735" stroke="white" strokeWidth="1.5" stroke-linecap="round" stroke-linejoin="round"/>
<path d="M13.1626 11.4001C13.7607 11.2134 14.3814 11.2134 14.9795 11.4001" stroke="white" strokeWidth="1.5" stroke-linecap="round" stroke-linejoin="round"/>
<path d="M14.0654 25.3333V29.3333" stroke="white" strokeWidth="1.5" stroke-linecap="round" stroke-linejoin="round"/>
</svg>
