<svg width="164" height="49" viewBox="0 0 164 49" fill="none" xmlns="http://www.w3.org/2000/svg">
<g filter="url(#filter0_d_2877_181515)">
<rect x="4" y="0.566895" width="156" height="40" rx="12" fill="white" shape-rendering="crispEdges"/>
<path d="M22.25 11.3556V29.7775C22.2501 29.8175 22.262 29.8565 22.2843 29.8897C22.3065 29.923 22.338 29.9489 22.3749 29.9642C22.4118 29.9796 22.4524 29.9837 22.4917 29.9761C22.5309 29.9685 22.567 29.9495 22.5955 29.9214L32.1875 20.567L22.5955 11.2117C22.567 11.1837 22.5309 11.1646 22.4917 11.157C22.4524 11.1494 22.4118 11.1535 22.3749 11.1689C22.338 11.1843 22.3065 11.2102 22.2843 11.2434C22.262 11.2766 22.2501 11.3157 22.25 11.3556ZM36.2094 16.7233L24.1822 10.097L24.1747 10.0928C23.9675 9.98032 23.7706 10.2606 23.9403 10.4238L33.3683 19.4388L36.2094 16.7233ZM23.9413 30.7103C23.7706 30.8734 23.9675 31.1538 24.1756 31.0413L24.1831 31.037L36.2094 24.4108L33.3683 21.6944L23.9413 30.7103ZM41.0647 19.3952L37.7061 17.5455L34.5481 20.567L37.7061 23.5872L41.0647 21.7389C41.9783 21.2341 41.9783 19.9 41.0647 19.3952Z" fill="black"/>
<path opacity="0.5" d="M68.092 9.63689C67.84 9.15156 67.49 8.78756 67.042 8.54489C66.594 8.29289 66.076 8.16689 65.488 8.16689C64.844 8.16689 64.27 8.31156 63.766 8.60089C63.262 8.89023 62.8653 9.30089 62.576 9.83289C62.296 10.3649 62.156 10.9809 62.156 11.6809C62.156 12.3809 62.296 13.0016 62.576 13.5429C62.8653 14.0749 63.262 14.4856 63.766 14.7749C64.27 15.0642 64.844 15.2089 65.488 15.2089C66.356 15.2089 67.0607 14.9662 67.602 14.4809C68.1433 13.9956 68.4747 13.3376 68.596 12.5069H64.942V11.2329H70.304V12.4789C70.2013 13.2349 69.9307 13.9302 69.492 14.5649C69.0627 15.1996 68.498 15.7082 67.798 16.0909C67.1073 16.4642 66.3373 16.6509 65.488 16.6509C64.5733 16.6509 63.738 16.4409 62.982 16.0209C62.226 15.5916 61.624 14.9989 61.176 14.2429C60.7373 13.4869 60.518 12.6329 60.518 11.6809C60.518 10.7289 60.7373 9.87489 61.176 9.11889C61.624 8.36289 62.226 7.77489 62.982 7.35489C63.7473 6.92556 64.5827 6.71089 65.488 6.71089C66.524 6.71089 67.4433 6.96756 68.246 7.48089C69.058 7.98489 69.646 8.70356 70.01 9.63689H68.092ZM73.4741 8.12489V10.9809H76.8341V12.2829H73.4741V15.2649H77.2541V16.5669H71.8781V6.82289H77.2541V8.12489H73.4741ZM85.5059 6.83689V8.13889H82.9159V16.5669H81.3199V8.13889H78.7159V6.83689H85.5059ZM92.355 6.83689V16.5669H90.759V6.83689H92.355ZM102.444 16.5669H100.848L96.0464 9.30089V16.5669H94.4504V6.82289H96.0464L100.848 14.0749V6.82289H102.444V16.5669ZM112.615 16.6649C111.71 16.6649 110.874 16.4549 110.109 16.0349C109.353 15.6056 108.751 15.0129 108.303 14.2569C107.864 13.4916 107.645 12.6329 107.645 11.6809C107.645 10.7289 107.864 9.87489 108.303 9.11889C108.751 8.36289 109.353 7.77489 110.109 7.35489C110.874 6.92556 111.71 6.71089 112.615 6.71089C113.53 6.71089 114.365 6.92556 115.121 7.35489C115.886 7.77489 116.488 8.36289 116.927 9.11889C117.366 9.87489 117.585 10.7289 117.585 11.6809C117.585 12.6329 117.366 13.4916 116.927 14.2569C116.488 15.0129 115.886 15.6056 115.121 16.0349C114.365 16.4549 113.53 16.6649 112.615 16.6649ZM112.615 15.2789C113.259 15.2789 113.833 15.1342 114.337 14.8449C114.841 14.5462 115.233 14.1262 115.513 13.5849C115.802 13.0342 115.947 12.3996 115.947 11.6809C115.947 10.9622 115.802 10.3322 115.513 9.79089C115.233 9.24956 114.841 8.83423 114.337 8.54489C113.833 8.25556 113.259 8.11089 112.615 8.11089C111.971 8.11089 111.397 8.25556 110.893 8.54489C110.389 8.83423 109.992 9.24956 109.703 9.79089C109.423 10.3322 109.283 10.9622 109.283 11.6809C109.283 12.3996 109.423 13.0342 109.703 13.5849C109.992 14.1262 110.389 14.5462 110.893 14.8449C111.397 15.1342 111.971 15.2789 112.615 15.2789ZM127.149 16.5669H125.553L120.751 9.30089V16.5669H119.155V6.82289H120.751L125.553 14.0749V6.82289H127.149V16.5669Z" fill="black"/>
<path d="M68.092 27.6369C67.84 27.1516 67.49 26.7876 67.042 26.5449C66.594 26.2929 66.076 26.1669 65.488 26.1669C64.844 26.1669 64.27 26.3116 63.766 26.6009C63.262 26.8902 62.8653 27.3009 62.576 27.8329C62.296 28.3649 62.156 28.9809 62.156 29.6809C62.156 30.3809 62.296 31.0016 62.576 31.5429C62.8653 32.0749 63.262 32.4856 63.766 32.7749C64.27 33.0642 64.844 33.2089 65.488 33.2089C66.356 33.2089 67.0607 32.9662 67.602 32.4809C68.1433 31.9956 68.4747 31.3376 68.596 30.5069H64.942V29.2329H70.304V30.4789C70.2013 31.2349 69.9307 31.9302 69.492 32.5649C69.0627 33.1996 68.498 33.7082 67.798 34.0909C67.1073 34.4642 66.3373 34.6509 65.488 34.6509C64.5733 34.6509 63.738 34.4409 62.982 34.0209C62.226 33.5916 61.624 32.9989 61.176 32.2429C60.7373 31.4869 60.518 30.6329 60.518 29.6809C60.518 28.7289 60.7373 27.8749 61.176 27.1189C61.624 26.3629 62.226 25.7749 62.982 25.3549C63.7473 24.9256 64.5827 24.7109 65.488 24.7109C66.524 24.7109 67.4433 24.9676 68.246 25.4809C69.058 25.9849 69.646 26.7036 70.01 27.6369H68.092ZM75.2241 34.6929C74.4961 34.6929 73.8381 34.5296 73.2501 34.2029C72.6621 33.8669 72.2001 33.4002 71.8641 32.8029C71.5281 32.1962 71.3601 31.4962 71.3601 30.7029C71.3601 29.9189 71.5328 29.2236 71.8781 28.6169C72.2235 28.0102 72.6948 27.5436 73.2921 27.2169C73.8895 26.8902 74.5568 26.7269 75.2941 26.7269C76.0315 26.7269 76.6988 26.8902 77.2961 27.2169C77.8935 27.5436 78.3648 28.0102 78.7101 28.6169C79.0555 29.2236 79.2281 29.9189 79.2281 30.7029C79.2281 31.4869 79.0508 32.1822 78.6961 32.7889C78.3415 33.3956 77.8561 33.8669 77.2401 34.2029C76.6335 34.5296 75.9615 34.6929 75.2241 34.6929ZM75.2241 33.3069C75.6348 33.3069 76.0175 33.2089 76.3721 33.0129C76.7361 32.8169 77.0301 32.5229 77.2541 32.1309C77.4781 31.7389 77.5901 31.2629 77.5901 30.7029C77.5901 30.1429 77.4828 29.6716 77.2681 29.2889C77.0535 28.8969 76.7688 28.6029 76.4141 28.4069C76.0595 28.2109 75.6768 28.1129 75.2661 28.1129C74.8555 28.1129 74.4728 28.2109 74.1181 28.4069C73.7728 28.6029 73.4975 28.8969 73.2921 29.2889C73.0868 29.6716 72.9841 30.1429 72.9841 30.7029C72.9841 31.5336 73.1941 32.1776 73.6141 32.6349C74.0435 33.0829 74.5801 33.3069 75.2241 33.3069ZM84.1519 34.6929C83.4239 34.6929 82.7659 34.5296 82.1779 34.2029C81.5899 33.8669 81.1279 33.4002 80.7919 32.8029C80.4559 32.1962 80.2879 31.4962 80.2879 30.7029C80.2879 29.9189 80.4605 29.2236 80.8059 28.6169C81.1512 28.0102 81.6225 27.5436 82.2199 27.2169C82.8172 26.8902 83.4845 26.7269 84.2219 26.7269C84.9592 26.7269 85.6265 26.8902 86.2239 27.2169C86.8212 27.5436 87.2925 28.0102 87.6379 28.6169C87.9832 29.2236 88.1559 29.9189 88.1559 30.7029C88.1559 31.4869 87.9785 32.1822 87.6239 32.7889C87.2692 33.3956 86.7839 33.8669 86.1679 34.2029C85.5612 34.5296 84.8892 34.6929 84.1519 34.6929ZM84.1519 33.3069C84.5625 33.3069 84.9452 33.2089 85.2999 33.0129C85.6639 32.8169 85.9579 32.5229 86.1819 32.1309C86.4059 31.7389 86.5179 31.2629 86.5179 30.7029C86.5179 30.1429 86.4105 29.6716 86.1959 29.2889C85.9812 28.8969 85.6965 28.6029 85.3419 28.4069C84.9872 28.2109 84.6045 28.1129 84.1939 28.1129C83.7832 28.1129 83.4005 28.2109 83.0459 28.4069C82.7005 28.6029 82.4252 28.8969 82.2199 29.2889C82.0145 29.6716 81.9119 30.1429 81.9119 30.7029C81.9119 31.5336 82.1219 32.1776 82.5419 32.6349C82.9712 33.0829 83.5079 33.3069 84.1519 33.3069ZM92.8416 26.7269C93.4389 26.7269 93.9663 26.8482 94.4236 27.0909C94.8903 27.3242 95.2543 27.6182 95.5156 27.9729V26.8529H97.1256V34.6929C97.1256 35.4022 96.9763 36.0322 96.6776 36.5829C96.3789 37.1429 95.9449 37.5816 95.3756 37.8989C94.8156 38.2162 94.1436 38.3749 93.3596 38.3749C92.3143 38.3749 91.4463 38.1276 90.7556 37.6329C90.0649 37.1476 89.6729 36.4849 89.5796 35.6449H91.1616C91.2829 36.0462 91.5396 36.3682 91.9316 36.6109C92.3329 36.8629 92.8089 36.9889 93.3596 36.9889C94.0036 36.9889 94.5216 36.7929 94.9136 36.4009C95.3149 36.0089 95.5156 35.4396 95.5156 34.6929V33.4049C95.2449 33.7689 94.8763 34.0769 94.4096 34.3289C93.9523 34.5716 93.4296 34.6929 92.8416 34.6929C92.1696 34.6929 91.5536 34.5249 90.9936 34.1889C90.4429 33.8436 90.0043 33.3676 89.6776 32.7609C89.3603 32.1449 89.2016 31.4496 89.2016 30.6749C89.2016 29.9002 89.3603 29.2142 89.6776 28.6169C90.0043 28.0196 90.4429 27.5576 90.9936 27.2309C91.5536 26.8949 92.1696 26.7269 92.8416 26.7269ZM95.5156 30.7029C95.5156 30.1709 95.4036 29.7089 95.1796 29.3169C94.9649 28.9249 94.6803 28.6262 94.3256 28.4209C93.9709 28.2156 93.5883 28.1129 93.1776 28.1129C92.7669 28.1129 92.3843 28.2156 92.0296 28.4209C91.6749 28.6169 91.3856 28.9109 91.1616 29.3029C90.9469 29.6856 90.8396 30.1429 90.8396 30.6749C90.8396 31.2069 90.9469 31.6736 91.1616 32.0749C91.3856 32.4762 91.6749 32.7842 92.0296 32.9989C92.3936 33.2042 92.7763 33.3069 93.1776 33.3069C93.5883 33.3069 93.9709 33.2042 94.3256 32.9989C94.6803 32.7936 94.9649 32.4949 95.1796 32.1029C95.4036 31.7016 95.5156 31.2349 95.5156 30.7029ZM100.818 24.2069V34.5669H99.2219V24.2069H100.818ZM109.983 30.5209C109.983 30.8102 109.965 31.0716 109.927 31.3049H104.033C104.08 31.9209 104.309 32.4156 104.719 32.7889C105.13 33.1622 105.634 33.3489 106.231 33.3489C107.09 33.3489 107.697 32.9896 108.051 32.2709H109.773C109.54 32.9802 109.115 33.5636 108.499 34.0209C107.893 34.4689 107.137 34.6929 106.231 34.6929C105.494 34.6929 104.831 34.5296 104.243 34.2029C103.665 33.8669 103.207 33.4002 102.871 32.8029C102.545 32.1962 102.381 31.4962 102.381 30.7029C102.381 29.9096 102.54 29.2142 102.857 28.6169C103.184 28.0102 103.637 27.5436 104.215 27.2169C104.803 26.8902 105.475 26.7269 106.231 26.7269C106.959 26.7269 107.608 26.8856 108.177 27.2029C108.747 27.5202 109.19 27.9682 109.507 28.5469C109.825 29.1162 109.983 29.7742 109.983 30.5209ZM108.317 30.0169C108.308 29.4289 108.098 28.9576 107.687 28.6029C107.277 28.2482 106.768 28.0709 106.161 28.0709C105.611 28.0709 105.139 28.2482 104.747 28.6029C104.355 28.9482 104.122 29.4196 104.047 30.0169H108.317ZM121.995 27.7349C121.995 28.2296 121.878 28.6962 121.645 29.1349C121.411 29.5736 121.038 29.9329 120.525 30.2129C120.011 30.4836 119.353 30.6189 118.551 30.6189H116.787V34.5669H115.191V24.8369H118.551C119.297 24.8369 119.927 24.9676 120.441 25.2289C120.963 25.4809 121.351 25.8262 121.603 26.2649C121.864 26.7036 121.995 27.1936 121.995 27.7349ZM118.551 29.3169C119.157 29.3169 119.61 29.1816 119.909 28.9109C120.207 28.6309 120.357 28.2389 120.357 27.7349C120.357 26.6709 119.755 26.1389 118.551 26.1389H116.787V29.3169H118.551ZM125.113 24.2069V34.5669H123.517V24.2069H125.113ZM126.676 30.6749C126.676 29.9002 126.835 29.2142 127.152 28.6169C127.479 28.0196 127.918 27.5576 128.468 27.2309C129.028 26.8949 129.644 26.7269 130.316 26.7269C130.923 26.7269 131.45 26.8482 131.898 27.0909C132.356 27.3242 132.72 27.6182 132.99 27.9729V26.8529H134.6V34.5669H132.99V33.4189C132.72 33.7829 132.351 34.0862 131.884 34.3289C131.418 34.5716 130.886 34.6929 130.288 34.6929C129.626 34.6929 129.019 34.5249 128.468 34.1889C127.918 33.8436 127.479 33.3676 127.152 32.7609C126.835 32.1449 126.676 31.4496 126.676 30.6749ZM132.99 30.7029C132.99 30.1709 132.878 29.7089 132.654 29.3169C132.44 28.9249 132.155 28.6262 131.8 28.4209C131.446 28.2156 131.063 28.1129 130.652 28.1129C130.242 28.1129 129.859 28.2156 129.504 28.4209C129.15 28.6169 128.86 28.9109 128.636 29.3029C128.422 29.6856 128.314 30.1429 128.314 30.6749C128.314 31.2069 128.422 31.6736 128.636 32.0749C128.86 32.4762 129.15 32.7842 129.504 32.9989C129.868 33.2042 130.251 33.3069 130.652 33.3069C131.063 33.3069 131.446 33.2042 131.8 32.9989C132.155 32.7936 132.44 32.4949 132.654 32.1029C132.878 31.7016 132.99 31.2349 132.99 30.7029ZM143.64 26.8529L138.908 38.1929H137.256L138.824 34.4409L135.786 26.8529H137.564L139.734 32.7329L141.988 26.8529H143.64Z" fill="black"/>
</g>
<defs>
<filter id="filter0_d_2877_181515" x="0" y="0.566895" width="164" height="48" filterUnits="userSpaceOnUse" color-interpolation-filters="sRGB">
<feFlood flood-opacity="0" result="BackgroundImageFix"/>
<feColorMatrix in="SourceAlpha" type="matrix" values="0 0 0 0 0 0 0 0 0 0 0 0 0 0 0 0 0 0 127 0" result="hardAlpha"/>
<feOffset dy="4"/>
<feGaussianBlur stdDeviation="2"/>
<feComposite in2="hardAlpha" operator="out"/>
<feColorMatrix type="matrix" values="0 0 0 0 0 0 0 0 0 0 0 0 0 0 0 0 0 0 0.25 0"/>
<feBlend mode="normal" in2="BackgroundImageFix" result="effect1_dropShadow_2877_181515"/>
<feBlend mode="normal" in="SourceGraphic" in2="effect1_dropShadow_2877_181515" result="shape"/>
</filter>
</defs>
</svg>
