<svg width="33" height="32" viewBox="0 0 33 32" fill="none" xmlns="http://www.w3.org/2000/svg">
    <path
        d="M16.2037 11.3235C16.2833 11.2438 16.3779 11.1807 16.4819 11.1376C16.586 11.0945 16.6975 11.0723 16.8102 11.0723C16.9228 11.0723 17.0344 11.0945 17.1384 11.1376C17.2425 11.1807 17.3371 11.2438 17.4167 11.3235L20.9367 14.8432C21.0976 15.0041 21.1879 15.2223 21.1879 15.4498C21.1879 15.6773 21.0974 15.8955 20.9365 16.0564C20.7756 16.2172 20.5574 16.3076 20.3299 16.3075C20.1024 16.3075 19.8842 16.2171 19.7233 16.0562L17.6681 14.0009V19.3598C17.6681 19.5873 17.5777 19.8054 17.4169 19.9663C17.256 20.1272 17.0378 20.2175 16.8104 20.2175C16.5829 20.2175 16.3647 20.1272 16.2038 19.9663C16.043 19.8054 15.9526 19.5873 15.9526 19.3598V14.0009L13.8974 16.0562C13.7365 16.2171 13.5183 16.3074 13.2908 16.3074C13.0634 16.3074 12.8452 16.2171 12.6843 16.0562C12.5235 15.8953 12.4331 15.6772 12.4331 15.4497C12.4331 15.2222 12.5235 15.004 12.6843 14.8432L16.2037 11.3235Z"
        fill="white" />
    <path fill-rule="evenodd" clip-rule="evenodd"
        d="M4.65186 9.23969C4.65186 6.89786 6.21755 5 8.14876 5H25.4683C27.3996 5 28.9653 6.89786 28.9653 9.23969V22.7603C28.9653 25.1017 27.3996 27 25.4683 27H8.14876C6.21755 27 4.65186 25.1017 4.65186 22.7603V9.23969ZM8.14876 7.07985C7.67629 7.07985 7.22318 7.3074 6.88909 7.71245C6.55501 8.1175 6.36732 8.66687 6.36732 9.23969V22.7603C6.36732 23.0439 6.4134 23.3248 6.50292 23.5868C6.59245 23.8489 6.72367 24.087 6.88909 24.2875C7.05451 24.4881 7.2509 24.6472 7.46703 24.7557C7.68317 24.8643 7.91482 24.9202 8.14876 24.9202H25.4683C25.7023 24.9202 25.9339 24.8643 26.1501 24.7557C26.3662 24.6472 26.5626 24.4881 26.728 24.2875C26.8934 24.087 27.0247 23.8489 27.1142 23.5868C27.2037 23.3248 27.2498 23.0439 27.2498 22.7603V9.23929C27.2498 8.66647 27.0621 8.1171 26.728 7.71205C26.3939 7.307 25.9408 7.07945 25.4683 7.07945L8.14876 7.07985Z"
        fill="white" />
</svg>