<svg width="28" height="32" viewBox="0 0 28 32" fill="none" xmlns="http://www.w3.org/2000/svg">
<rect width="27.0842" height="32" transform="translate(0.486328)" fill="none"/>
<path d="M25.6303 13.2937L17.1665 3.29375C17.0481 3.15381 16.8974 3.05847 16.7332 3.01978C16.569 2.98109 16.3988 3.00079 16.2441 3.07638C16.0894 3.15198 15.9572 3.28008 15.8641 3.44448C15.7711 3.60889 15.7213 3.80221 15.7213 3.99999V9.04374C12.9769 9.32124 9.94575 10.9087 7.4521 13.4075C4.44956 16.4175 2.58011 20.2962 2.1876 24.3287C2.15693 24.6423 2.21073 24.9592 2.34135 25.2345C2.47197 25.5098 2.67275 25.7294 2.91512 25.862C3.1575 25.9947 3.42911 26.0337 3.69131 25.9734C3.9535 25.9131 4.19292 25.7566 4.3755 25.5262C5.53927 24.0625 9.6802 19.4337 15.7213 19.0262V24C15.7213 24.1978 15.7711 24.3911 15.8641 24.5555C15.9572 24.7199 16.0894 24.848 16.2441 24.9236C16.3988 24.9992 16.569 25.0189 16.7332 24.9802C16.8974 24.9415 17.0481 24.8462 17.1665 24.7062L25.6303 14.7062C25.7886 14.5188 25.8775 14.2648 25.8775 14C25.8775 13.7352 25.7886 13.4812 25.6303 13.2937ZM17.414 21.5862V18C17.414 17.7348 17.3249 17.4804 17.1661 17.2929C17.0074 17.1054 16.7921 17 16.5676 17C13.5968 17 10.7033 17.9162 7.96733 19.725C6.57392 20.6503 5.27564 21.7627 4.09831 23.04C4.71194 20.06 6.2587 17.2262 8.54711 14.9325C11.0037 12.4712 14.002 11 16.5676 11C16.7921 11 17.0074 10.8946 17.1661 10.7071C17.3249 10.5196 17.414 10.2652 17.414 9.99999V6.41499L23.8349 14L17.414 21.5862Z" fill="white"/>
</svg>
