<svg width="70" height="66" viewBox="0 0 70 66" fill="none" xmlns="http://www.w3.org/2000/svg">
<path d="M36.9745 16.8092L36.8759 16.7771C36.4048 16.6237 36.1529 16.0939 36.2866 15.6043C37.6441 10.6248 41.877 6.95434 46.9287 6.95434C47.4265 6.95434 47.8084 7.3909 47.8084 7.90099C47.8084 8.41107 47.4265 8.84764 46.9287 8.84764C42.8345 8.84764 39.147 11.8376 37.9747 16.1371L36.9745 16.8092ZM36.9745 16.8092L36.979 16.8036M36.9745 16.8092L36.979 16.8036M36.979 16.8036C37.4236 16.8889 37.8506 16.5945 37.9746 16.1373L36.979 16.8036Z" fill="#3578EA" stroke="#1D1D1D" stroke-width="0.299326"/>
<path d="M57.1497 46.9566H52.7693C52.3662 46.9566 52.0392 46.5996 52.0392 46.1596C52.0392 45.7195 52.3662 45.3626 52.7693 45.3626H57.1497C63.188 45.3626 68.101 39.9995 68.101 33.4079C68.101 26.8164 63.188 21.4532 57.1497 21.4532H57.0444C56.8327 21.4532 56.6314 21.353 56.4927 21.1783C56.354 21.0035 56.2914 20.7718 56.3216 20.543C56.3868 20.0466 56.4197 19.5479 56.4197 19.0623C56.4197 13.3497 52.1616 8.70151 46.9285 8.70151C44.8926 8.70151 42.9511 9.39602 41.3135 10.7105C40.9537 10.9991 40.4427 10.871 40.2346 10.4389C35.597 0.798909 23.4841 -0.495644 17.2042 7.89031C14.5587 11.4232 13.5193 16.0189 14.3522 20.498C14.444 20.9927 14.0972 21.4538 13.6367 21.4538H13.3441C7.30586 21.4538 2.39286 26.817 2.39286 33.4085C2.39286 40.0001 7.30586 45.3632 13.3441 45.3632H17.7246C18.1277 45.3632 18.4547 45.7201 18.4547 46.1602C18.4547 46.6002 18.1277 46.9572 17.7246 46.9572H13.3441C6.50058 46.9572 0.932617 40.8791 0.932617 33.4085C0.932617 26.1474 6.19232 20.2019 12.771 19.874C12.1531 15.227 13.3348 10.5396 16.0736 6.88157C22.7971 -2.09752 35.6823 -1.09108 41.1292 8.92126C42.8669 7.73205 44.8552 7.10819 46.9282 7.10819C53.2685 7.10819 58.2926 12.999 57.853 19.8815C64.3711 20.2805 69.561 26.1947 69.561 33.4079C69.561 40.8791 63.993 46.9566 57.1494 46.9566L57.1497 46.9566Z" fill="#3578EA"/>
<path d="M16.7468 45.7084C16.7468 56.765 24.9898 65.7828 35.1489 65.7828C45.308 65.7828 53.5509 56.7649 53.5509 45.7084C53.5509 34.6518 45.308 25.634 35.1489 25.634C24.9897 25.634 16.7468 34.6519 16.7468 45.7084ZM18.5067 45.7084C18.5067 35.6712 25.9846 27.5277 35.1489 27.5277C44.313 27.5277 51.7911 35.6711 51.7911 45.7084C51.7911 55.7456 44.313 63.8891 35.1489 63.8891C25.9847 63.8891 18.5067 55.7457 18.5067 45.7084Z" fill="#3578EA" stroke="#1D1D1D" stroke-width="0.299326"/>
<path d="M34.8015 53.7331C34.8015 54.1253 35.0958 54.4662 35.4857 54.4662C35.8755 54.4662 36.1698 54.1258 36.1698 53.7331V38.5625C36.1698 38.1703 35.8755 37.8293 35.4857 37.8293C35.0958 37.8293 34.8015 38.1703 34.8015 38.5625V53.7331Z" fill="#3578EA" stroke="#3578EA" stroke-width="0.299326"/>
<path d="M35.4845 39.6093L39.2722 43.7441C39.4044 43.8884 39.5814 43.9635 39.7604 43.9635L35.4845 39.6093ZM35.4845 39.6093L31.6968 43.744C31.429 44.0369 30.9882 44.0367 30.7201 43.7441C30.4589 43.4589 30.4589 43.0019 30.7201 42.7167L34.996 38.049L35.4845 39.6093ZM39.7605 43.9635C39.9393 43.9635 40.1163 43.8891 40.2488 43.7441L39.7605 43.9635Z" fill="#3578EA" stroke="#3578EA" stroke-width="0.299326"/>
</svg>
