<svg width="33" height="32" viewBox="0 0 33 32" fill="none" xmlns="http://www.w3.org/2000/svg">
    <path
        d="M8.4815 27.2268C4.26816 27.2268 2.86816 24.4268 2.86816 21.6134V10.3868C2.86816 6.17344 4.26816 4.77344 8.4815 4.77344H16.9082C21.1215 4.77344 22.5215 6.17344 22.5215 10.3868V21.6134C22.5215 25.8268 21.1082 27.2268 16.9082 27.2268H8.4815Z"
        stroke="#010101" strokeWidth="1.5" stroke-linecap="round" stroke-linejoin="round" />
    <path
        d="M22.5215 20.1999V11.7865L26.2282 9.18654C28.0415 7.91987 29.5348 8.6932 29.5348 10.9199V21.0799C29.5348 23.3065 28.0415 24.0799 26.2282 22.7999L22.5215 20.1999Z"
        stroke="#010101" strokeWidth="1.5" stroke-linecap="round" stroke-linejoin="round" />
    <path fill-rule="evenodd" clip-rule="evenodd"
        d="M15.5349 14.6667C14.4303 14.6667 13.5349 13.7713 13.5349 12.6667C13.5349 11.5621 14.4303 10.6667 15.5349 10.6667C16.6395 10.6667 17.5349 11.5621 17.5349 12.6667C17.5349 13.7713 16.6395 14.6667 15.5349 14.6667Z"
        stroke="#010101" strokeWidth="1.5" stroke-linecap="round" stroke-linejoin="round" />
    <line x1="1.35355" y1="4.64645" x2="23.3536" y2="26.6464" stroke="#010101" />
</svg>