<svg width="28" height="32" viewBox="0 0 28 32" fill="none" xmlns="http://www.w3.org/2000/svg">
    <path
        d="M7.04961 27.2268C3.48352 27.2268 2.29858 24.4268 2.29858 21.6134V10.3868C2.29858 6.17344 3.48352 4.77344 7.04961 4.77344H14.1818C17.7479 4.77344 18.9328 6.17344 18.9328 10.3868V21.6134C18.9328 25.8268 17.7366 27.2268 14.1818 27.2268H7.04961Z"
        stroke="#010101" strokeWidth="1.5" stroke-linecap="round" stroke-linejoin="round" />
    <path
        d="M18.9329 20.1998V11.7865L22.0701 9.18651C23.6049 7.91984 24.8688 8.69317 24.8688 10.9198V21.0798C24.8688 23.3065 23.6049 24.0798 22.0701 22.7998L18.9329 20.1998Z"
        stroke="#010101" strokeWidth="1.5" stroke-linecap="round" stroke-linejoin="round" />
    <path fill-rule="evenodd" clip-rule="evenodd"
        d="M13.0194 14.6667C12.0845 14.6667 11.3267 13.7712 11.3267 12.6667C11.3267 11.5621 12.0845 10.6667 13.0194 10.6667C13.9543 10.6667 14.7122 11.5621 14.7122 12.6667C14.7122 13.7712 13.9543 14.6667 13.0194 14.6667Z"
        stroke="#010101" strokeWidth="1.5" stroke-linecap="round" stroke-linejoin="round" />
</svg>