<svg width="25" height="24" viewBox="0 0 25 24" fill="none" xmlns="http://www.w3.org/2000/svg">
    <path
        d="M5.17813 17.8001C5.27813 17.8001 5.27812 17.8001 5.37812 17.8001L7.57812 17.4001C8.57812 17.2001 9.47813 16.7001 10.1781 16.0001L19.2781 7.0001C19.8781 6.5001 20.1781 5.7001 20.1781 4.9001C20.1781 4.1001 19.8781 3.4001 19.2781 2.8001C18.1781 1.7001 16.2781 1.7001 15.0781 2.8001L5.97813 11.7001C5.27813 12.4001 4.77813 13.3001 4.57813 14.3001L4.17812 16.6001C4.07812 16.9001 4.17813 17.3001 4.47813 17.5001C4.67813 17.7001 4.87813 17.8001 5.17813 17.8001ZM16.4781 4.3001C16.6781 4.1001 16.9781 4.0001 17.1781 4.0001C17.4781 4.0001 17.6781 4.1001 17.8781 4.3001C18.0781 4.5001 18.1781 4.7001 18.1781 4.9001C18.1781 5.0001 18.1781 5.3001 17.8781 5.6001L17.4781 6.0001L16.0781 4.7001L16.4781 4.3001ZM6.57812 14.8001C6.67812 14.2001 6.97813 13.7001 7.47813 13.2001L14.6781 6.1001L16.0781 7.4001L8.87812 14.5001C8.47812 14.9001 7.87812 15.2001 7.27812 15.3001L6.47813 15.5001L6.57812 14.8001Z"
        fill="#3578EA" />
    <path
        d="M19.1797 19H5.17969C4.57969 19 4.17969 19.4 4.17969 20C4.17969 20.6 4.57969 21 5.17969 21H19.1797C19.7797 21 20.1797 20.6 20.1797 20C20.1797 19.4 19.7797 19 19.1797 19Z"
        fill="#3578EA" />
</svg>