<svg width="24" height="24" viewBox="0 0 24 24" fill="none" xmlns="http://www.w3.org/2000/svg">
    <path
        d="M6.21 20.4201C3.05 20.4201 2 18.3201 2 16.2101V7.79008C2 4.63008 3.05 3.58008 6.21 3.58008H12.53C15.69 3.58008 16.74 4.63008 16.74 7.79008V16.2101C16.74 19.3701 15.68 20.4201 12.53 20.4201H6.21Z"
        fill="white" stroke="white" strokeWidth="1.5" stroke-linecap="round" stroke-linejoin="round" />
    <path
        d="M16.7402 15.1501V8.84013L19.5202 6.89013C20.8802 5.94013 22.0002 6.52013 22.0002 8.19013V15.8101C22.0002 17.4801 20.8802 18.0601 19.5202 17.1001L16.7402 15.1501Z"
        stroke="white" strokeWidth="1.5" stroke-linecap="round" stroke-linejoin="round" />
    <path fill-rule="evenodd" clip-rule="evenodd"
        d="M11.5 11C10.6716 11 10 10.3284 10 9.5C10 8.67157 10.6716 8 11.5 8C12.3284 8 13 8.67157 13 9.5C13 10.3284 12.3284 11 11.5 11Z"
        fill="#15181F" stroke="#15181F" strokeWidth="1.5" stroke-linecap="round" stroke-linejoin="round" />
</svg>