<svg width="24" height="24" viewBox="0 0 24 24" fill="none" xmlns="http://www.w3.org/2000/svg">
    <path
        d="M4.095 20.055L7.266 18.9975L7.821 19.275C9.096 19.911 10.5135 20.25 12 20.25C16.965 20.25 21 16.341 21 12C21 7.659 16.965 3.75 12 3.75C7.035 3.75 3 7.659 3 12C3 13.62 3.585 15.264 4.6605 16.6695L5.178 17.3445L4.0935 20.0535L4.095 20.055ZM3.0345 21.99C2.89876 22.0355 2.75284 22.0412 2.61397 22.0064C2.47511 21.9716 2.3491 21.8978 2.25084 21.7937C2.15257 21.6896 2.08615 21.5595 2.05942 21.4189C2.03269 21.2782 2.04677 21.1329 2.1 21L3.468 17.58C2.22 15.945 1.5 13.989 1.5 12C1.5 7.029 6 2.25 12 2.25C18 2.25 22.5 7.029 22.5 12C22.5 16.971 18 21.75 12 21.75C10.3173 21.7547 8.65665 21.3664 7.1505 20.616L3.0345 21.9885V21.99Z"
        fill="white" />
    <path
        d="M11.9998 13.1998C11.8422 13.1998 11.6862 13.1688 11.5406 13.1085C11.395 13.0482 11.2627 12.9598 11.1513 12.8483C11.0398 12.7369 10.9515 12.6046 10.8911 12.459C10.8308 12.3134 10.7998 12.1574 10.7998 11.9998C10.7998 11.8422 10.8308 11.6862 10.8911 11.5406C10.9515 11.395 11.0398 11.2627 11.1513 11.1513C11.2627 11.0398 11.395 10.9515 11.5406 10.8911C11.6862 10.8308 11.8422 10.7998 11.9998 10.7998C12.3181 10.7998 12.6233 10.9262 12.8483 11.1513C13.0734 11.3763 13.1998 11.6815 13.1998 11.9998C13.1998 12.3181 13.0734 12.6233 12.8483 12.8483C12.6233 13.0734 12.3181 13.1998 11.9998 13.1998ZM16.4998 13.1998C16.3422 13.1998 16.1862 13.1688 16.0406 13.1085C15.895 13.0482 15.7627 12.9598 15.6513 12.8483C15.5398 12.7369 15.4515 12.6046 15.3911 12.459C15.3308 12.3134 15.2998 12.1574 15.2998 11.9998C15.2998 11.8422 15.3308 11.6862 15.3911 11.5406C15.4515 11.395 15.5398 11.2627 15.6513 11.1513C15.7627 11.0398 15.895 10.9515 16.0406 10.8911C16.1862 10.8308 16.3422 10.7998 16.4998 10.7998C16.8181 10.7998 17.1233 10.9262 17.3483 11.1513C17.5734 11.3763 17.6998 11.6815 17.6998 11.9998C17.6998 12.3181 17.5734 12.6233 17.3483 12.8483C17.1233 13.0734 16.8181 13.1998 16.4998 13.1998ZM7.4998 13.1998C7.34222 13.1998 7.18618 13.1688 7.04058 13.1085C6.89499 13.0482 6.76271 12.9598 6.65128 12.8483C6.53985 12.7369 6.45145 12.6046 6.39115 12.459C6.33084 12.3134 6.2998 12.1574 6.2998 11.9998C6.2998 11.8422 6.33084 11.6862 6.39115 11.5406C6.45145 11.395 6.53985 11.2627 6.65128 11.1513C6.76271 11.0398 6.89499 10.9515 7.04058 10.8911C7.18618 10.8308 7.34222 10.7998 7.4998 10.7998C7.81806 10.7998 8.12329 10.9262 8.34833 11.1513C8.57338 11.3763 8.69981 11.6815 8.69981 11.9998C8.69981 12.3181 8.57338 12.6233 8.34833 12.8483C8.12329 13.0734 7.81806 13.1998 7.4998 13.1998Z"
        fill="white" />
</svg>