<svg width="24" height="24" viewBox="0 0 24 24" fill="none" xmlns="http://www.w3.org/2000/svg">
    <g clip-path="url(#clip0_6322_73295)">
        <path
            d="M12.0285 23.9996C12.3878 23.9805 12.7326 23.669 13.0019 23.12C13.2712 22.5711 13.4476 21.8201 13.5 21H10.5C10.5539 21.8424 10.7386 22.611 11.0198 23.1628C11.3009 23.7146 11.6594 24.0119 12.0285 23.9996Z"
            fill="white" />
        <path
            d="M21.594 19.6078C20.9585 18.9969 20.4022 18.2965 19.94 17.5255C19.4354 16.4613 19.133 15.2991 19.0505 14.1071V10.5963C19.0478 10.1698 19.0125 9.74436 18.945 9.32416C18.4264 9.21235 17.9279 9.01075 17.469 8.72718C17.6439 9.33471 17.7328 9.96725 17.7326 10.6034V14.1142C17.8134 15.5683 18.1842 16.9864 18.8198 18.2717C19.2748 19.0492 19.8146 19.7651 20.4276 20.4038H3.55223C4.16531 19.7651 4.70511 19.0492 5.16004 18.2717C5.79566 16.9864 6.16653 15.5683 6.24729 14.1142V10.5963C6.24382 9.77381 6.39081 8.95866 6.67985 8.19752C6.96888 7.43639 7.39428 6.74421 7.93168 6.16064C8.46908 5.57707 9.10794 5.11356 9.81167 4.79665C10.5154 4.47974 11.2702 4.31566 12.0328 4.3138C13.1489 4.31476 14.2399 4.67075 15.1693 5.33719C15.0669 4.93138 15.0093 4.5139 14.998 4.09349V3.64575C14.31 3.28071 13.5708 3.04059 12.8103 2.93506V2.03959C12.8103 1.78796 12.7176 1.54664 12.5527 1.36871C12.3877 1.19078 12.1639 1.09082 11.9306 1.09082C11.6973 1.09082 11.4736 1.19078 11.3086 1.36871C11.1436 1.54664 11.051 1.78796 11.051 2.03959V2.9706C9.34807 3.22968 7.78958 4.14447 6.66323 5.54609C5.53687 6.9477 4.91869 8.7415 4.92282 10.5963V14.1071C4.8403 15.2991 4.53786 16.4613 4.03326 17.5255C3.57917 18.2947 3.0318 18.995 2.40568 19.6078C2.33539 19.6744 2.27906 19.7564 2.24043 19.8483C2.2018 19.9402 2.18176 20.04 2.18164 20.1409V21.1074C2.18164 21.2959 2.25106 21.4767 2.37464 21.6099C2.49821 21.7432 2.66582 21.8181 2.84058 21.8181H21.1591C21.3338 21.8181 21.5014 21.7432 21.625 21.6099C21.7486 21.4767 21.818 21.2959 21.818 21.1074V20.1409C21.8179 20.04 21.7978 19.9402 21.7592 19.8483C21.7206 19.7564 21.6643 19.6744 21.594 19.6078Z"
            fill="white" />
        <path
            d="M19.636 7.63628C21.4435 7.63628 22.9087 6.17103 22.9087 4.36355C22.9087 2.55607 21.4435 1.09082 19.636 1.09082C17.8285 1.09082 16.3633 2.55607 16.3633 4.36355C16.3633 6.17103 17.8285 7.63628 19.636 7.63628Z"
            fill="#FF4343" />
    </g>
    <defs>
        <clipPath id="clip0_6322_73295">
            <rect width="24" height="24" fill="white" />
        </clipPath>
    </defs>
</svg>