<svg width="24" height="24" viewBox="0 0 24 24" fill="none" xmlns="http://www.w3.org/2000/svg">
    <path
        d="M15.0028 21.4074C19.7064 21.4074 21.5878 19.526 21.5878 14.8224V9.17805C21.5878 4.47446 19.7064 2.59302 15.0028 2.59302H9.35847C4.65488 2.59302 2.77344 4.47446 2.77344 9.17805V14.8224C2.77344 19.526 4.65488 21.4074 9.35847 21.4074H15.0028Z"
        stroke="white" stroke-width="1.05831" stroke-linecap="round" stroke-linejoin="round" />
    <path fill-rule="evenodd" clip-rule="evenodd"
        d="M9.358 10.1186C8.31891 10.1186 7.47656 9.27624 7.47656 8.23715C7.47656 7.19806 8.31891 6.35571 9.358 6.35571C10.3971 6.35571 11.2394 7.19806 11.2394 8.23715C11.2394 9.27624 10.3971 10.1186 9.358 10.1186Z"
        stroke="white" stroke-width="1.05831" stroke-linecap="round" stroke-linejoin="round" />
    <path
        d="M3.40625 18.5382L8.044 15.4244C8.78716 14.9258 9.85958 14.9822 10.5275 15.5561L10.8379 15.8289C11.5717 16.4592 12.757 16.4592 13.4908 15.8289L17.4041 12.4705C18.1379 11.8402 19.3232 11.8402 20.057 12.4705L21.5904 13.7875"
        stroke="white" stroke-width="1.05831" stroke-linecap="round" stroke-linejoin="round" />
</svg>