<svg width="32" height="32" viewBox="0 0 32 32" fill="none" xmlns="http://www.w3.org/2000/svg">
    <path
        d="M20.0003 29.3332C26.667 29.3332 29.3337 26.6665 29.3337 19.9998V11.9998C29.3337 5.33317 26.667 2.6665 20.0003 2.6665H12.0003C5.33366 2.6665 2.66699 5.33317 2.66699 11.9998V19.9998C2.66699 26.6665 5.33366 29.3332 12.0003 29.3332H20.0003Z"
        stroke="#8F8F8F" strokeWidth="1.5" stroke-linecap="round" stroke-linejoin="round" />
    <path fill-rule="evenodd" clip-rule="evenodd"
        d="M11.9997 13.3333C10.5269 13.3333 9.33301 12.1394 9.33301 10.6667C9.33301 9.19391 10.5269 8 11.9997 8C13.4724 8 14.6663 9.19391 14.6663 10.6667C14.6663 12.1394 13.4724 13.3333 11.9997 13.3333Z"
        stroke="#8F8F8F" strokeWidth="1.5" stroke-linecap="round" stroke-linejoin="round" />
    <path
        d="M3.56055 25.2666L10.1339 20.8532C11.1872 20.1466 12.7072 20.2266 13.6539 21.0399L14.0939 21.4266C15.1339 22.3199 16.8139 22.3199 17.8539 21.4266L23.4005 16.6666C24.4405 15.7732 26.1205 15.7732 27.1605 16.6666L29.3339 18.5332"
        stroke="#8F8F8F" strokeWidth="1.5" stroke-linecap="round" stroke-linejoin="round" />
</svg>